<?xml version="1.0" encoding="utf-8"?><svg viewBox="0 0 95 95" xmlns="http://www.w3.org/2000/svg" xmlns:xlink="http://www.w3.org/1999/xlink"><style>:root>svg{display:none}:root>svg:target{display:block}</style><svg viewBox="0 0 29 16" fill="none" id="ic-arrow-down" xmlns="http://www.w3.org/2000/svg"><path d="M1.36.762a1.823 1.823 0 0 0 0 2.581l12.12 12.12a1.452 1.452 0 0 0 2.056 0l12.118-12.12a1.822 1.822 0 0 0 0-2.58 1.822 1.822 0 0 0-2.581 0L14.5 11.32 3.927.748c-.7-.7-1.866-.7-2.567.014Z"/></svg><svg viewBox="0 0 29 16" id="ic-arrow-drop" xmlns="http://www.w3.org/2000/svg"><path d="M1.36 15.238a1.823 1.823 0 0 1 0-2.581L13.48.537a1.453 1.453 0 0 1 2.055 0l12.12 12.12a1.822 1.822 0 0 1 0 2.58 1.822 1.822 0 0 1-2.582 0L14.5 4.68 3.927 15.252c-.7.7-1.867.7-2.567-.014Z"/></svg><svg fill="none" viewBox="0 0 41 42" id="ic-book2" xmlns="http://www.w3.org/2000/svg"><path d="M5.98 31.25V12.457c0-6.834 1.707-8.542 8.54-8.542h11.96c6.832 0 8.54 1.708 8.54 8.542V29.54c0 .24 0 .478-.016.718" stroke="#1F302D" stroke-width="2.563" stroke-linecap="round" stroke-linejoin="round"/><path d="M10.848 26.125H35.02v5.98a5.986 5.986 0 0 1-5.98 5.978H11.959a5.986 5.986 0 0 1-5.979-5.979v-1.11a4.878 4.878 0 0 1 4.869-4.869ZM13.667 12.459h13.666M13.667 18.438h8.541" stroke="#1F302D" stroke-width="2.563" stroke-linecap="round" stroke-linejoin="round"/></svg><svg viewBox="0 0 41 42" fill="none" id="ic-favorite-chart4" xmlns="http://www.w3.org/2000/svg"><path d="M37.583 22.708v-6.834c0-8.541-3.416-11.958-11.958-11.958h-10.25c-8.542 0-11.958 3.417-11.958 11.958v10.25c0 8.542 3.416 11.959 11.958 11.959h6.833" stroke="#1F302D" stroke-width="2.563" stroke-linecap="round" stroke-linejoin="round"/><path d="m12.522 25.254 4.066-5.28a1.715 1.715 0 0 1 2.409-.307l3.126 2.46c.752.581 1.828.445 2.409-.29l3.946-5.09M33.278 27.523l.479.974c.239.479.837.923 1.366 1.025l.65.103c1.947.324 2.408 1.76 1.007 3.177l-.598.598c-.392.41-.614 1.196-.495 1.743l.086.358c.53 2.358-.718 3.263-2.768 2.033l-.444-.256c-.53-.307-1.384-.307-1.913 0l-.445.256c-2.067 1.247-3.314.325-2.767-2.033l.085-.358c.12-.547-.102-1.333-.495-1.743l-.598-.598c-1.4-1.418-.94-2.853 1.008-3.177l.649-.103c.512-.085 1.127-.546 1.367-1.025l.478-.974c.922-1.862 2.426-1.862 3.348 0Z" stroke="#1F302D" stroke-width="2.563" stroke-linecap="round" stroke-linejoin="round"/></svg><svg viewBox="0 0 41 42" fill="none" id="ic-gps3" xmlns="http://www.w3.org/2000/svg"><path d="M20.5 33.813c7.076 0 12.813-5.737 12.813-12.813 0-7.076-5.737-12.813-12.813-12.813-7.076 0-12.813 5.737-12.813 12.813 0 7.076 5.737 12.813 12.813 12.813Z" stroke="#1F302D" stroke-width="2.563" stroke-linecap="round" stroke-linejoin="round"/><path d="M20.5 26.125a5.125 5.125 0 1 0 0-10.25 5.125 5.125 0 0 0 0 10.25ZM20.5 7.333V3.916M6.833 21H3.417M20.5 34.666v3.417M34.167 21h3.416" stroke="#1F302D" stroke-width="2.563" stroke-linecap="round" stroke-linejoin="round"/></svg><svg viewBox="0 0 41 42" fill="none" id="ic-graph5" xmlns="http://www.w3.org/2000/svg"><path d="M31.297 21c4.441 0 6.286-1.71 4.646-7.313-1.11-3.775-4.356-7.02-8.131-8.131-5.604-1.64-7.312.205-7.312 4.647v4.92c0 4.168 1.708 5.876 5.125 5.876h5.672Z" stroke="#1F302D" stroke-width="2.563" stroke-linecap="round" stroke-linejoin="round"/><path d="M34.167 25.612A15.53 15.53 0 0 1 16.366 37.86C9.89 36.818 4.68 31.608 3.622 25.133A15.547 15.547 0 0 1 15.819 7.35" stroke="#1F302D" stroke-width="2.563" stroke-linecap="round" stroke-linejoin="round"/></svg><svg viewBox="0 0 41 42" fill="none" id="ic-link6" xmlns="http://www.w3.org/2000/svg"><path d="M23.063 21a9.813 9.813 0 0 1-9.823 9.824A9.813 9.813 0 0 1 3.417 21a9.813 9.813 0 0 1 9.823-9.823" stroke="#1F302D" stroke-width="2.563" stroke-linecap="round" stroke-linejoin="round"/><path d="M17.083 21c0-5.655 4.596-10.25 10.25-10.25 5.655 0 10.25 4.595 10.25 10.25s-4.595 10.25-10.25 10.25" stroke="#1F302D" stroke-width="2.563" stroke-linecap="round" stroke-linejoin="round"/></svg><svg viewBox="0 0 41 42" fill="none" id="ic-magic-star1" xmlns="http://www.w3.org/2000/svg"><path d="m29.538 7.573-.12 6.474c-.017.889.547 2.067 1.264 2.597l4.237 3.212c2.716 2.05 2.272 4.56-.974 5.586l-5.518 1.725c-.922.29-1.896 1.299-2.135 2.238l-1.316 5.023c-1.042 3.963-3.639 4.356-5.791.87l-3.007-4.868c-.546-.888-1.845-1.554-2.87-1.503l-5.705.29c-4.083.205-5.245-2.152-2.58-5.261l3.382-3.93c.633-.734.923-2.1.633-3.023l-1.726-5.518c-1.008-3.246.803-5.04 4.032-3.98l5.04 1.656c.854.274 2.135.086 2.852-.444l5.262-3.792c2.836-2.05 5.108-.854 5.04 2.648ZM37.43 38.084l-5.177-5.176" stroke="#1F302D" stroke-width="2.563" stroke-linecap="round" stroke-linejoin="round"/></svg><svg viewBox="0 0 24 24" id="ic_arrow-right" xmlns="http://www.w3.org/2000/svg"><path d="M5 11h11.17l-4.88-4.88a1.008 1.008 0 0 1 .323-1.636.996.996 0 0 1 1.087.216l6.59 6.59a.995.995 0 0 1 0 1.41l-6.59 6.59a.997.997 0 1 1-1.41-1.41L16.17 13H5c-.55 0-1-.45-1-1s.45-1 1-1Z"/></svg><svg viewBox="0 0 95 89" fill="none" id="ic_crystal1" xmlns="http://www.w3.org/2000/svg"><mask id="ja" style="mask-type:luminance" maskUnits="userSpaceOnUse" x="0" y="-7" width="95" height="96"><path d="M95-6.742H0v95h95v-95Z" fill="#fff"/></mask><g mask="url(#ja)"><path d="m46.821 16.15-32.91 50.58 14.928 13.572h34.947l16.285-14.25-33.25-49.903Z" stroke="#86AC6A" stroke-width="2.036"/><path d="M29.518 79.962 46.82 15.838l16.965 64.124" stroke="#86AC6A" stroke-width="1.357"/><path d="m13.91 66.39 17.983-9.16h30.875S76 63.563 80.07 66.052" stroke="#D9EDCA" stroke-width="1.357"/><path d="m31.723 57.597 15.098-41.824 15.947 41.824" stroke="#D9EDCA" stroke-width="1.357"/></g></svg><svg viewBox="0 0 92 95" fill="none" id="ic_crystal2" xmlns="http://www.w3.org/2000/svg"><g clip-path="url(#ka)"><mask id="kb" style="mask-type:luminance" maskUnits="userSpaceOnUse" x="-3" y="-1" width="95" height="96"><path d="M92-.105H-3v95h95v-95Z" fill="#fff"/></mask><g mask="url(#kb)" stroke="#86AC6A"><path d="m42.504 17.525-12.878-.427-18.82 11.033-.56 18.9 34.19 33.947 36.703-28.816.82-20.232-16.97-12.283-22.485-2.122Z" stroke-width="2.036"/><path d="m52.523 39.345-10.482-.308L30.138 58.5l14.297 22.479 15.96-19.884-7.873-21.749Z" stroke-width="1.357"/><path d="m27.783 29.7 13.823 8.907 10.884.905 13.496-8.093.874-4.496-12.39-8.283-11.883-1.099L28.99 25.27l-1.007 4.297L10.18 47.364l20.225 11.533M65.621 31.52l15.717 20.508M30.406 58.897l29.956 2.363 20.81-9.264M29.322 25.334 11.44 28.427M66.66 27.057l15.798 4.97" stroke-width="1.357"/></g></g><defs><clipPath id="ka"><path fill="#fff" transform="translate(-3 -.105)" d="M0 0h95v95H0z"/></clipPath></defs></svg><svg viewBox="0 0 95 95" fill="none" id="ic_crystal3" xmlns="http://www.w3.org/2000/svg"><g clip-path="url(#la)"><mask id="lb" style="mask-type:luminance" maskUnits="userSpaceOnUse" x="0" y="0" width="95" height="95"><path d="M95 0H0v95h95V0Z" fill="#fff"/></mask><g mask="url(#lb)"><path d="M45.128 4.057 10.105 51.96l36.001 36.132 35.04-46.172L45.128 4.057Z" stroke="#86AC6A" stroke-width="2.036"/><path d="M45.15 4.13 58.69 50.52 46.12 88.123" stroke="#86AC6A" stroke-width="1.357"/><path d="m10.611 51.087 49.172-.257 21.344-8.98" stroke="#86AC6A" stroke-width="1.357"/><path d="M44.515 4.459 36.48 42.196l9.678 46.157" stroke="#D9EDCA" stroke-width="1.357"/><path d="m10.086 51.89 26.464-9.362 44.454.387" stroke="#D9EDCA" stroke-width="1.357"/></g></g><defs><clipPath id="la"><path fill="#fff" d="M0 0h95v95H0z"/></clipPath></defs></svg><svg viewBox="0 0 95 95" fill="none" id="ic_crystal4" xmlns="http://www.w3.org/2000/svg"><g clip-path="url(#ma)"><mask id="mb" style="mask-type:luminance" maskUnits="userSpaceOnUse" x="0" y="0" width="95" height="95"><path d="M95 0H0v95h95V0Z" fill="#fff"/></mask><g mask="url(#mb)"><path d="m47.577 26.483-38 30.729 37.321 22.393L84.22 56.872l-36.643-30.39Z" stroke="#86AC6A" stroke-width="2.036"/><path d="m47.307 27.313-.046 52.616" stroke="#86AC6A" stroke-width=".797"/><path d="M83.804 56.406 46.482 35.964 9.161 56.672" stroke="#D9EDCA" stroke-width="1.357"/></g></g><defs><clipPath id="ma"><path fill="#fff" d="M0 0h95v95H0z"/></clipPath></defs></svg></svg>