<?xml version="1.0" encoding="utf-8"?><svg viewBox="0 0 95 95" xmlns="http://www.w3.org/2000/svg" xmlns:xlink="http://www.w3.org/1999/xlink"><style>:root>svg{display:none}:root>svg:target{display:block}</style><svg viewBox="0 0 24 24" id="ic_arrow-right" xmlns="http://www.w3.org/2000/svg"><path d="M5 11h11.17l-4.88-4.88a1.008 1.008 0 0 1 .323-1.636.996.996 0 0 1 1.087.216l6.59 6.59a.995.995 0 0 1 0 1.41l-6.59 6.59a.997.997 0 1 1-1.41-1.41L16.17 13H5c-.55 0-1-.45-1-1s.45-1 1-1Z"/></svg><svg viewBox="0 0 95 89" fill="none" id="ic_crystal1" xmlns="http://www.w3.org/2000/svg"><mask id="ba" style="mask-type:luminance" maskUnits="userSpaceOnUse" x="0" y="-7" width="95" height="96"><path d="M95-6.742H0v95h95v-95Z" fill="#fff"/></mask><g mask="url(#ba)"><path d="m46.821 16.15-32.91 50.58 14.928 13.572h34.947l16.285-14.25-33.25-49.903Z" stroke="#86AC6A" stroke-width="2.036"/><path d="M29.518 79.962 46.82 15.838l16.965 64.124" stroke="#86AC6A" stroke-width="1.357"/><path d="m13.91 66.39 17.983-9.16h30.875S76 63.563 80.07 66.052" stroke="#D9EDCA" stroke-width="1.357"/><path d="m31.723 57.597 15.098-41.824 15.947 41.824" stroke="#D9EDCA" stroke-width="1.357"/></g></svg><svg viewBox="0 0 92 95" fill="none" id="ic_crystal2" xmlns="http://www.w3.org/2000/svg"><g clip-path="url(#ca)"><mask id="cb" style="mask-type:luminance" maskUnits="userSpaceOnUse" x="-3" y="-1" width="95" height="96"><path d="M92-.105H-3v95h95v-95Z" fill="#fff"/></mask><g mask="url(#cb)" stroke="#86AC6A"><path d="m42.504 17.525-12.878-.427-18.82 11.033-.56 18.9 34.19 33.947 36.703-28.816.82-20.232-16.97-12.283-22.485-2.122Z" stroke-width="2.036"/><path d="m52.523 39.345-10.482-.308L30.138 58.5l14.297 22.479 15.96-19.884-7.873-21.749Z" stroke-width="1.357"/><path d="m27.783 29.7 13.823 8.907 10.884.905 13.496-8.093.874-4.496-12.39-8.283-11.883-1.099L28.99 25.27l-1.007 4.297L10.18 47.364l20.225 11.533M65.621 31.52l15.717 20.508M30.406 58.897l29.956 2.363 20.81-9.264M29.322 25.334 11.44 28.427M66.66 27.057l15.798 4.97" stroke-width="1.357"/></g></g><defs><clipPath id="ca"><path fill="#fff" transform="translate(-3 -.105)" d="M0 0h95v95H0z"/></clipPath></defs></svg><svg viewBox="0 0 95 95" fill="none" id="ic_crystal3" xmlns="http://www.w3.org/2000/svg"><g clip-path="url(#da)"><mask id="db" style="mask-type:luminance" maskUnits="userSpaceOnUse" x="0" y="0" width="95" height="95"><path d="M95 0H0v95h95V0Z" fill="#fff"/></mask><g mask="url(#db)"><path d="M45.128 4.057 10.105 51.96l36.001 36.132 35.04-46.172L45.128 4.057Z" stroke="#86AC6A" stroke-width="2.036"/><path d="M45.15 4.13 58.69 50.52 46.12 88.123" stroke="#86AC6A" stroke-width="1.357"/><path d="m10.611 51.087 49.172-.257 21.344-8.98" stroke="#86AC6A" stroke-width="1.357"/><path d="M44.515 4.459 36.48 42.196l9.678 46.157" stroke="#D9EDCA" stroke-width="1.357"/><path d="m10.086 51.89 26.464-9.362 44.454.387" stroke="#D9EDCA" stroke-width="1.357"/></g></g><defs><clipPath id="da"><path fill="#fff" d="M0 0h95v95H0z"/></clipPath></defs></svg><svg viewBox="0 0 95 95" fill="none" id="ic_crystal4" xmlns="http://www.w3.org/2000/svg"><g clip-path="url(#ea)"><mask id="eb" style="mask-type:luminance" maskUnits="userSpaceOnUse" x="0" y="0" width="95" height="95"><path d="M95 0H0v95h95V0Z" fill="#fff"/></mask><g mask="url(#eb)"><path d="m47.577 26.483-38 30.729 37.321 22.393L84.22 56.872l-36.643-30.39Z" stroke="#86AC6A" stroke-width="2.036"/><path d="m47.307 27.313-.046 52.616" stroke="#86AC6A" stroke-width=".797"/><path d="M83.804 56.406 46.482 35.964 9.161 56.672" stroke="#D9EDCA" stroke-width="1.357"/></g></g><defs><clipPath id="ea"><path fill="#fff" d="M0 0h95v95H0z"/></clipPath></defs></svg></svg>