<svg viewBox="0 0 24 24" xmlns="http://www.w3.org/2000/svg">
<path d="M5.00001 11H16.17L11.29 6.12004C10.9 5.73004 10.9 5.09004 11.29 4.70004C11.3825 4.60733 11.4924 4.53379 11.6134 4.4836C11.7344 4.43342 11.864 4.40759 11.995 4.40759C12.126 4.40759 12.2557 4.43342 12.3766 4.4836C12.4976 4.53379 12.6075 4.60733 12.7 4.70004L19.29 11.29C19.3827 11.3826 19.4563 11.4924 19.5064 11.6134C19.5566 11.7344 19.5825 11.8641 19.5825 11.995C19.5825 12.126 19.5566 12.2557 19.5064 12.3767C19.4563 12.4976 19.3827 12.6075 19.29 12.7L12.7 19.29C12.6074 19.3826 12.4975 19.4561 12.3766 19.5062C12.2556 19.5563 12.1259 19.5821 11.995 19.5821C11.8641 19.5821 11.7344 19.5563 11.6135 19.5062C11.4925 19.4561 11.3826 19.3826 11.29 19.29C11.1974 19.1975 11.124 19.0875 11.0739 18.9666C11.0238 18.8456 10.998 18.716 10.998 18.585C10.998 18.4541 11.0238 18.3245 11.0739 18.2035C11.124 18.0825 11.1974 17.9726 11.29 17.88L16.17 13H5.00001C4.45001 13 4.00001 12.55 4.00001 12C4.00001 11.45 4.45001 11 5.00001 11Z"/>
</svg>
