<svg width="51" height="51" viewBox="0 0 51 51" fill="none" xmlns="http://www.w3.org/2000/svg">
<circle cx="30.3333" cy="22.1673" r="17.0833" fill="#EEF3EA"/>
<path d="M40.5833 30.7077V23.8743C40.5833 15.3327 37.1666 11.916 28.625 11.916H18.375C9.83329 11.916 6.41663 15.3327 6.41663 23.8743V34.1243C6.41663 42.666 9.83329 46.0827 18.375 46.0827H25.2083" stroke="#1F302D" stroke-width="2.5625" stroke-linecap="round" stroke-linejoin="round"/>
<path d="M15.5221 33.2536L19.5879 27.9748C20.1688 27.2232 21.245 27.0865 21.9967 27.6674L25.123 30.1274C25.8746 30.7082 26.9508 30.5715 27.5317 29.8369L31.478 24.7461" stroke="#1F302D" stroke-width="2.5625" stroke-linecap="round" stroke-linejoin="round"/>
<path d="M36.2784 35.5235L36.7567 36.4973C36.9959 36.9756 37.5938 37.4198 38.1234 37.5223L38.7725 37.6248C40.72 37.9493 41.1813 39.3843 39.7804 40.8023L39.1825 41.4002C38.7896 41.8102 38.5676 42.596 38.6871 43.1427L38.7725 43.5014C39.3021 45.8589 38.055 46.7643 36.005 45.5343L35.5609 45.2781C35.0313 44.9706 34.1771 44.9706 33.6475 45.2781L33.2034 45.5343C31.1363 46.7814 29.8892 45.8589 30.4359 43.5014L30.5213 43.1427C30.6408 42.596 30.4188 41.8102 30.0259 41.4002L29.4279 40.8023C28.0271 39.3843 28.4884 37.9493 30.4359 37.6248L31.085 37.5223C31.5975 37.4368 32.2125 36.9756 32.4517 36.4973L32.93 35.5235C33.8525 33.6614 35.3559 33.6614 36.2784 35.5235Z" stroke="#1F302D" stroke-width="2.5625" stroke-linecap="round" stroke-linejoin="round"/>
</svg>
