<svg width="51" height="51" viewBox="0 0 51 51" fill="none" xmlns="http://www.w3.org/2000/svg">
<circle cx="30.3333" cy="22.1673" r="17.0833" fill="#EEF3EA"/>
<path d="M23.5 41.8125C30.5761 41.8125 36.3125 36.0761 36.3125 29C36.3125 21.9239 30.5761 16.1875 23.5 16.1875C16.4239 16.1875 10.6875 21.9239 10.6875 29C10.6875 36.0761 16.4239 41.8125 23.5 41.8125Z" stroke="#1F302D" stroke-width="2.5625" stroke-linecap="round" stroke-linejoin="round"/>
<path d="M23.5 34.125C26.3305 34.125 28.625 31.8305 28.625 29C28.625 26.1695 26.3305 23.875 23.5 23.875C20.6695 23.875 18.375 26.1695 18.375 29C18.375 31.8305 20.6695 34.125 23.5 34.125Z" stroke="#1F302D" stroke-width="2.5625" stroke-linecap="round" stroke-linejoin="round"/>
<path d="M23.5 15.3327V11.916" stroke="#1F302D" stroke-width="2.5625" stroke-linecap="round" stroke-linejoin="round"/>
<path d="M9.83329 29H6.41663" stroke="#1F302D" stroke-width="2.5625" stroke-linecap="round" stroke-linejoin="round"/>
<path d="M23.5 42.666V46.0827" stroke="#1F302D" stroke-width="2.5625" stroke-linecap="round" stroke-linejoin="round"/>
<path d="M37.1666 29H40.5833" stroke="#1F302D" stroke-width="2.5625" stroke-linecap="round" stroke-linejoin="round"/>
</svg>
