<svg width="760" height="671" viewBox="0 0 760 671" fill="none" xmlns="http://www.w3.org/2000/svg">
<path d="M362.913 488.736L215.286 341.536C210.621 336.886 208 330.577 208 324C208 317.423 210.621 311.115 215.286 306.464L362.912 159.265C367.577 154.613 373.904 152 380.501 152C387.098 152 393.425 154.613 398.09 159.265L545.716 306.465C555.428 316.15 555.428 331.851 545.716 341.536L398.09 488.735C393.426 493.387 387.098 496 380.501 496C373.904 496 367.577 493.387 362.913 488.735V488.736Z" stroke="#DDDDDD" stroke-width="0.527772"/>
<path d="M368.355 482.779L221.238 336.106C217.884 332.763 216 328.229 216 323.5C216 318.772 217.884 314.237 221.239 310.894L368.355 164.221C375.341 157.26 386.663 157.26 393.649 164.221L540.761 310.907C544.115 314.25 546 318.784 546 323.513C546 328.241 544.115 332.776 540.761 336.119L393.649 482.779C386.663 489.74 375.341 489.74 368.355 482.779Z" fill="#FAFAFA" stroke="#DDDDDD" stroke-width="0.527772"/>
<path fill-rule="evenodd" clip-rule="evenodd" d="M351.764 497.921L206.111 352.658C198.357 344.925 194 334.437 194 323.5C194 312.563 198.357 302.075 206.111 294.343L351.764 149.079C359.517 141.345 370.034 137 381 137C391.966 137 402.482 141.345 410.235 149.079L555.892 294.343C572.036 310.447 572.036 336.553 555.892 352.658L410.235 497.921C402.482 505.655 391.966 510 381 510C370.034 510 359.517 505.655 351.764 497.921Z" stroke="#BDBDBD" stroke-width="2.11109" stroke-dasharray="5.28 5.28"/>
<path d="M234.31 266.4L220.554 252.921C217.626 250.006 212.883 250.006 209.954 252.921L187.867 274.93C186.294 276.5 184.16 277.382 181.933 277.382C179.707 277.382 177.572 276.5 175.999 274.93L166.633 265.556M347.166 153.66L333.385 140.181C330.452 137.273 325.713 137.273 322.781 140.181L300.698 162.194C297.418 165.459 292.105 165.459 288.825 162.194L278.938 152.301M234.955 380.596L220.554 395.082C217.624 397.992 212.884 397.992 209.954 395.082L187.867 373.069C186.294 371.499 184.16 370.617 181.933 370.617C179.707 370.617 177.572 371.499 175.999 373.069L166 383.809M346.436 494.746L333.385 507.817C330.453 510.728 325.712 510.728 322.781 507.817L300.698 485.808C299.125 484.238 296.989 483.356 294.762 483.356C292.535 483.356 290.399 484.238 288.825 485.808L281.737 494.056M526.128 266.4L539.91 252.921C542.838 250.006 547.581 250.006 550.51 252.921L572.614 274.947C574.187 276.517 576.322 277.399 578.548 277.399C580.774 277.399 582.909 276.517 584.482 274.947L594.193 265.23M413.28 153.66L427.061 140.181C429.994 137.273 434.733 137.273 437.666 140.181L459.748 162.194C463.028 165.459 468.342 165.459 471.621 162.194L484.156 149.649M526.128 381.599L539.91 395.082C542.84 397.992 547.579 397.992 550.51 395.082L572.596 373.069C574.17 371.499 576.304 370.617 578.531 370.617C580.757 370.617 582.892 371.499 584.465 373.069L597 385.613M413.28 494.339L427.061 507.818C429.993 510.728 434.734 510.728 437.666 507.818L459.748 485.808C461.322 484.238 463.457 483.356 465.684 483.356C467.911 483.356 470.047 484.238 471.621 485.808L484.156 498.353" stroke="#BDBDBD" stroke-width="2.11109" stroke-dasharray="5.28 5.28"/>
<path d="M289.136 324V310H301.896V324H298.676V311.9L299.416 312.64H291.616L292.356 311.9V324H289.136ZM305.367 324V310H311.427C312.68 310 313.76 310.207 314.667 310.62C315.574 311.02 316.274 311.6 316.767 312.36C317.26 313.12 317.507 314.027 317.507 315.08C317.507 316.12 317.26 317.02 316.767 317.78C316.274 318.54 315.574 319.127 314.667 319.54C313.76 319.94 312.68 320.14 311.427 320.14H307.167L308.607 318.68V324H305.367ZM308.607 319.04L307.167 317.5H311.247C312.247 317.5 312.994 317.287 313.487 316.86C313.98 316.433 314.227 315.84 314.227 315.08C314.227 314.307 313.98 313.707 313.487 313.28C312.994 312.853 312.247 312.64 311.247 312.64H307.167L308.607 311.1V319.04ZM322.624 315.64H329.364V318.16H322.624V315.64ZM322.864 321.4H330.484V324H319.644V310H330.224V312.6H322.864V321.4ZM333.101 324V310H336.321V319.12L343.001 310H346.041V324H342.841V314.9L336.161 324H333.101ZM349.527 324V310H352.207L358.167 319.88H356.747L362.607 310H365.287L365.307 324H362.267L362.247 314.66H362.827L358.127 322.52H356.687L351.887 314.66H352.567V324H349.527ZM369.265 321.36C370.038 321.587 370.685 321.653 371.205 321.56C371.738 321.453 372.212 321.08 372.625 320.44L373.305 319.42L373.605 319.08L378.245 310H381.425L375.465 321.08C374.932 322.08 374.298 322.847 373.565 323.38C372.845 323.913 372.052 324.213 371.185 324.28C370.318 324.36 369.418 324.207 368.485 323.82L369.265 321.36ZM373.545 321.78L367.225 310H370.685L375.325 319.4L373.545 321.78ZM391.325 321.36L390.605 322.1V310H393.825V322.1L393.065 321.36H398.985L398.225 322.1V310H401.445V324H382.965V310H386.185V322.1L385.445 321.36H391.325ZM400.345 326.9V323.24L401.105 324H398.165V321.36H403.345V326.9H400.345ZM408.542 315.64H415.282V318.16H408.542V315.64ZM408.782 321.4H416.402V324H405.562V310H416.142V312.6H408.782V321.4ZM425.639 324.24C424.559 324.24 423.553 324.067 422.619 323.72C421.699 323.36 420.899 322.853 420.219 322.2C419.539 321.547 419.006 320.78 418.619 319.9C418.246 319.02 418.059 318.053 418.059 317C418.059 315.947 418.246 314.98 418.619 314.1C419.006 313.22 419.539 312.453 420.219 311.8C420.913 311.147 421.719 310.647 422.639 310.3C423.559 309.94 424.566 309.76 425.659 309.76C426.873 309.76 427.966 309.973 428.939 310.4C429.926 310.813 430.753 311.427 431.419 312.24L429.339 314.16C428.859 313.613 428.326 313.207 427.739 312.94C427.153 312.66 426.513 312.52 425.819 312.52C425.166 312.52 424.566 312.627 424.019 312.84C423.473 313.053 422.999 313.36 422.599 313.76C422.199 314.16 421.886 314.633 421.659 315.18C421.446 315.727 421.339 316.333 421.339 317C421.339 317.667 421.446 318.273 421.659 318.82C421.886 319.367 422.199 319.84 422.599 320.24C422.999 320.64 423.473 320.947 424.019 321.16C424.566 321.373 425.166 321.48 425.819 321.48C426.513 321.48 427.153 321.347 427.739 321.08C428.326 320.8 428.859 320.38 429.339 319.82L431.419 321.74C430.753 322.553 429.926 323.173 428.939 323.6C427.966 324.027 426.866 324.24 425.639 324.24ZM436.414 324V311.9L437.154 312.64H431.954V310H444.094V312.64H438.894L439.614 311.9V324H436.414ZM446.129 324V310H452.649C454.275 310 455.542 310.313 456.449 310.94C457.355 311.567 457.809 312.46 457.809 313.62C457.809 314.767 457.382 315.66 456.529 316.3C455.675 316.927 454.542 317.24 453.129 317.24L453.509 316.4C455.082 316.4 456.302 316.713 457.169 317.34C458.035 317.967 458.469 318.873 458.469 320.06C458.469 321.287 458.002 322.253 457.069 322.96C456.149 323.653 454.802 324 453.029 324H446.129ZM449.349 321.6H452.909C453.655 321.6 454.222 321.453 454.609 321.16C454.995 320.867 455.189 320.413 455.189 319.8C455.189 319.213 454.995 318.78 454.609 318.5C454.222 318.207 453.655 318.06 452.909 318.06H449.349V321.6ZM449.349 315.8H452.369C453.075 315.8 453.609 315.66 453.969 315.38C454.329 315.087 454.509 314.66 454.509 314.1C454.509 313.54 454.329 313.12 453.969 312.84C453.609 312.547 453.075 312.4 452.369 312.4H449.349V315.8ZM459.111 324L465.351 310H468.551L474.811 324H471.411L466.291 311.64H467.571L462.431 324H459.111ZM462.231 321L463.091 318.54H470.291L471.171 321H462.231Z" fill="#86AC6A"/>
<path d="M634.895 300.372L557.602 222.668C554.656 219.706 553 215.689 553 211.5C553 207.311 554.656 203.293 557.602 200.331L634.895 122.627C637.842 119.664 641.838 118 646.005 118C650.173 118 654.169 119.665 657.116 122.627L734.399 200.331C740.534 206.5 740.534 216.5 734.399 222.668L657.116 300.372C654.169 303.335 650.173 305 646.005 305C641.838 305 637.842 303.335 634.895 300.372Z" fill="white"/>
<path d="M592.5 272C594.985 272 597 269.985 597 267.5C597 265.015 594.985 263 592.5 263C590.015 263 588 265.015 588 267.5C588 269.985 590.015 272 592.5 272Z" fill="#263936"/>
<path d="M526.5 271C528.985 271 531 268.985 531 266.5C531 264.015 528.985 262 526.5 262C524.015 262 522 264.015 522 266.5C522 268.985 524.015 271 526.5 271Z" fill="#263936"/>
<path d="M683.002 273.782L629.205 219.765C627.153 217.706 626 214.912 626 212C626 209.087 627.153 206.294 629.205 204.235L683.002 150.218C685.053 148.157 687.835 147 690.735 147C693.637 147 696.418 148.157 698.469 150.218L760 212L698.469 273.782C696.418 275.843 693.637 277 690.736 277C687.835 277 685.053 275.843 683.003 273.782H683.002Z" fill="#263936"/>
<path d="M635.932 296.595L562.379 222.631C559.576 219.811 558 215.988 558 212C558 208.012 559.576 204.188 562.379 201.369L635.932 127.404C638.737 124.584 642.54 123 646.505 123C650.471 123 654.274 124.585 657.078 127.404L730.622 201.369C736.459 207.241 736.459 216.759 730.622 222.631L657.078 296.595C654.274 299.415 650.471 301 646.505 301C642.54 301 638.737 299.415 635.932 296.595Z" fill="#FAFAFA" stroke="#CCCCCC" stroke-width="0.501383"/>
<path d="M577.882 216V206.2H579.268V213.76L585.064 206.2H586.352V216H584.98V208.454L579.17 216H577.882ZM596.436 206.2H597.836V216H596.436V206.2ZM590.808 216H589.408V206.2H590.808V216ZM596.562 211.632H590.668V210.414H596.562V211.632ZM605.68 215.342C604.486 215.342 603.464 215.179 602.614 214.852C601.765 214.516 601.116 214.031 600.668 213.396C600.22 212.761 599.996 211.991 599.996 211.086C599.996 210.181 600.22 209.411 600.668 208.776C601.116 208.141 601.765 207.656 602.614 207.32C603.464 206.984 604.486 206.816 605.68 206.816C605.699 206.816 605.732 206.816 605.778 206.816C605.834 206.816 605.886 206.816 605.932 206.816C605.988 206.816 606.021 206.816 606.03 206.816C607.225 206.816 608.242 206.984 609.082 207.32C609.932 207.656 610.58 208.141 611.028 208.776C611.476 209.411 611.7 210.181 611.7 211.086C611.7 211.982 611.476 212.752 611.028 213.396C610.59 214.031 609.95 214.516 609.11 214.852C608.28 215.179 607.272 215.342 606.086 215.342C606.068 215.342 606.026 215.342 605.96 215.342C605.904 215.342 605.848 215.342 605.792 215.342C605.736 215.342 605.699 215.342 605.68 215.342ZM605.834 214.25C605.853 214.25 605.876 214.25 605.904 214.25C605.932 214.25 605.946 214.25 605.946 214.25C606.898 214.241 607.701 214.119 608.354 213.886C609.008 213.643 609.502 213.289 609.838 212.822C610.184 212.346 610.356 211.763 610.356 211.072C610.356 210.391 610.184 209.817 609.838 209.35C609.493 208.883 608.994 208.529 608.34 208.286C607.696 208.043 606.908 207.922 605.974 207.922C605.965 207.922 605.942 207.922 605.904 207.922C605.876 207.922 605.853 207.922 605.834 207.922C604.873 207.922 604.056 208.043 603.384 208.286C602.722 208.519 602.218 208.869 601.872 209.336C601.527 209.803 601.354 210.386 601.354 211.086C601.354 211.786 601.532 212.369 601.886 212.836C602.241 213.303 602.75 213.657 603.412 213.9C604.084 214.133 604.892 214.25 605.834 214.25ZM605.204 216.364V205.836H606.506V216.364H605.204ZM613.853 216V206.2H617.675C618.534 206.2 619.266 206.335 619.873 206.606C620.48 206.877 620.946 207.269 621.273 207.782C621.6 208.295 621.763 208.907 621.763 209.616C621.763 210.325 621.6 210.937 621.273 211.45C620.946 211.954 620.48 212.346 619.873 212.626C619.266 212.897 618.534 213.032 617.675 213.032H614.623L615.253 212.374V216H613.853ZM615.253 212.514L614.623 211.814H617.633C618.529 211.814 619.206 211.623 619.663 211.24C620.13 210.857 620.363 210.316 620.363 209.616C620.363 208.916 620.13 208.375 619.663 207.992C619.206 207.609 618.529 207.418 617.633 207.418H614.623L615.253 206.718V212.514ZM621.86 216L626.298 206.2H627.684L632.136 216H630.666L626.704 206.984H627.264L623.302 216H621.86ZM623.75 213.55L624.128 212.43H629.644L630.05 213.55H623.75ZM638.073 216.112C637.326 216.112 636.636 215.991 636.001 215.748C635.376 215.496 634.83 215.146 634.363 214.698C633.906 214.241 633.546 213.709 633.285 213.102C633.024 212.495 632.893 211.828 632.893 211.1C632.893 210.372 633.024 209.705 633.285 209.098C633.546 208.491 633.91 207.964 634.377 207.516C634.844 207.059 635.39 206.709 636.015 206.466C636.65 206.214 637.34 206.088 638.087 206.088C638.843 206.088 639.538 206.219 640.173 206.48C640.817 206.732 641.363 207.11 641.811 207.614L640.901 208.496C640.528 208.104 640.108 207.815 639.641 207.628C639.174 207.432 638.675 207.334 638.143 207.334C637.592 207.334 637.079 207.427 636.603 207.614C636.136 207.801 635.73 208.062 635.385 208.398C635.04 208.734 634.769 209.135 634.573 209.602C634.386 210.059 634.293 210.559 634.293 211.1C634.293 211.641 634.386 212.145 634.573 212.612C634.769 213.069 635.04 213.466 635.385 213.802C635.73 214.138 636.136 214.399 636.603 214.586C637.079 214.773 637.592 214.866 638.143 214.866C638.675 214.866 639.174 214.773 639.641 214.586C640.108 214.39 640.528 214.091 640.901 213.69L641.811 214.572C641.363 215.076 640.817 215.459 640.173 215.72C639.538 215.981 638.838 216.112 638.073 216.112ZM645.632 216V207.054L645.982 207.418H642.286V206.2H650.364V207.418H646.668L647.004 207.054V216H645.632ZM652.066 216V206.2H655.888C656.747 206.2 657.479 206.335 658.086 206.606C658.693 206.877 659.159 207.269 659.486 207.782C659.813 208.295 659.976 208.907 659.976 209.616C659.976 210.325 659.813 210.937 659.486 211.45C659.159 211.954 658.693 212.346 658.086 212.626C657.479 212.897 656.747 213.032 655.888 213.032H652.836L653.466 212.374V216H652.066ZM653.466 212.514L652.836 211.814H655.846C656.742 211.814 657.419 211.623 657.876 211.24C658.343 210.857 658.576 210.316 658.576 209.616C658.576 208.916 658.343 208.375 657.876 207.992C657.419 207.609 656.742 207.418 655.846 207.418H652.836L653.466 206.718V212.514ZM661.677 214.768C662.162 214.945 662.61 214.992 663.021 214.908C663.431 214.815 663.8 214.502 664.127 213.97L664.603 213.214L664.743 213.06L668.341 206.2H669.727L665.373 214.264C665.046 214.88 664.663 215.347 664.225 215.664C663.795 215.972 663.329 216.14 662.825 216.168C662.33 216.205 661.826 216.112 661.313 215.888L661.677 214.768ZM664.701 214.306L660.403 206.2H661.901L665.471 213.186L664.701 214.306ZM677.773 216L674.217 211.17L675.351 210.47L679.369 216H677.773ZM671.179 216V206.2H672.551V216H671.179ZM672.131 211.688V210.456H675.309V211.688H672.131ZM675.477 211.254L674.189 211.058L677.703 206.2H679.201L675.477 211.254ZM682.711 216V207.054L683.061 207.418H679.365V206.2H687.443V207.418H683.747L684.083 207.054V216H682.711ZM688.692 214.768C689.178 214.945 689.626 214.992 690.036 214.908C690.447 214.815 690.816 214.502 691.142 213.97L691.618 213.214L691.758 213.06L695.356 206.2H696.742L692.388 214.264C692.062 214.88 691.679 215.347 691.24 215.664C690.811 215.972 690.344 216.14 689.84 216.168C689.346 216.205 688.842 216.112 688.328 215.888L688.692 214.768ZM691.716 214.306L687.418 206.2H688.916L692.486 213.186L691.716 214.306ZM698.195 216V206.2H702.017C702.876 206.2 703.608 206.335 704.215 206.606C704.822 206.877 705.288 207.269 705.615 207.782C705.942 208.295 706.105 208.907 706.105 209.616C706.105 210.325 705.942 210.937 705.615 211.45C705.288 211.954 704.822 212.346 704.215 212.626C703.608 212.897 702.876 213.032 702.017 213.032H698.965L699.595 212.374V216H698.195ZM699.595 212.514L698.965 211.814H701.975C702.871 211.814 703.548 211.623 704.005 211.24C704.472 210.857 704.705 210.316 704.705 209.616C704.705 208.916 704.472 208.375 704.005 207.992C703.548 207.609 702.871 207.418 701.975 207.418H698.965L699.595 206.718V212.514ZM706.202 216L710.64 206.2H712.026L716.478 216H715.008L711.046 206.984H711.606L707.644 216H706.202ZM708.092 213.55L708.47 212.43H713.986L714.392 213.55H708.092Z" fill="#232323"/>
<path d="M634.896 524.364L557.599 446.666C551.467 440.495 551.467 430.497 557.599 424.325L634.884 346.624C641.021 340.459 650.967 340.459 657.104 346.624L734.397 424.343C737.344 427.305 739 431.323 739 435.513C739 439.703 737.344 443.721 734.397 446.683L657.117 524.381C654.168 527.342 650.171 529.003 646.003 529C641.836 528.996 637.84 527.329 634.896 524.364Z" fill="#FAFAFA"/>
<path d="M597.03 382.293C597.978 379.996 596.887 377.361 594.592 376.408C592.297 375.455 589.667 376.544 588.718 378.841C587.769 381.138 588.861 383.773 591.156 384.726C593.451 385.679 596.081 384.59 597.03 382.293Z" fill="#D9EDCA"/>
<path d="M527.5 386C529.985 386 532 383.985 532 381.5C532 379.015 529.985 377 527.5 377C525.015 377 523 379.015 523 381.5C523 383.985 525.015 386 527.5 386Z" fill="#D9EDCA"/>
<path d="M682.999 497.786L629.202 443.767C624.933 439.476 624.933 432.524 629.202 428.233L682.999 374.215C687.273 369.928 694.196 369.928 698.47 374.215L760 435.998L698.469 497.785C694.196 502.072 687.273 502.072 682.999 497.785V497.786Z" fill="#D9EDCA"/>
<path d="M635.934 520.587L562.376 446.629C556.541 440.755 556.541 431.237 562.376 425.363L635.922 351.401C641.762 345.533 651.226 345.533 657.067 351.401L730.62 425.38C733.424 428.199 735 432.024 735 436.012C735 440.001 733.424 443.825 730.62 446.645L657.079 520.603C654.273 523.421 650.469 525.003 646.503 525C642.537 524.996 638.735 523.409 635.934 520.587Z" fill="#FAFAFA" stroke="#CCCCCC" stroke-width="0.501383"/>
<path d="M604.003 433L600.447 428.17L601.581 427.47L605.599 433H604.003ZM597.409 433V423.2H598.781V433H597.409ZM598.361 428.688V427.456H601.539V428.688H598.361ZM601.707 428.254L600.419 428.058L603.933 423.2H605.431L601.707 428.254ZM606.777 433.112C606.637 433.112 606.497 433.103 606.357 433.084C606.217 433.065 606.063 433.037 605.895 433L605.993 431.754C606.142 431.791 606.292 431.81 606.441 431.81C606.852 431.81 607.178 431.647 607.421 431.32C607.664 430.993 607.841 430.499 607.953 429.836C608.074 429.173 608.154 428.338 608.191 427.33L608.345 423.2H615.247V433H613.875V424.054L614.211 424.418H609.241L609.549 424.04L609.437 427.288C609.409 428.259 609.344 429.108 609.241 429.836C609.138 430.564 608.984 431.171 608.779 431.656C608.574 432.141 608.308 432.505 607.981 432.748C607.664 432.991 607.262 433.112 606.777 433.112ZM618.299 433V423.2H619.685V430.76L625.481 423.2H626.769V433H625.397V425.454L619.587 433H618.299ZM631.099 427.428H636.139V428.618H631.099V427.428ZM631.225 431.782H636.937V433H629.825V423.2H636.741V424.418H631.225V431.782ZM646.163 423.2H647.563V433H646.163V423.2ZM640.535 433H639.135V423.2H640.535V433ZM646.289 428.632H640.395V427.414H646.289V428.632ZM652.622 433V424.054L652.972 424.418H649.276V423.2H657.354V424.418H653.658L653.994 424.054V433H652.622ZM663.301 433.112C662.554 433.112 661.863 432.991 661.229 432.748C660.603 432.496 660.057 432.146 659.591 431.698C659.133 431.241 658.774 430.709 658.513 430.102C658.251 429.495 658.121 428.828 658.121 428.1C658.121 427.372 658.251 426.705 658.513 426.098C658.774 425.491 659.138 424.964 659.605 424.516C660.071 424.059 660.617 423.709 661.243 423.466C661.877 423.214 662.568 423.088 663.315 423.088C664.071 423.088 664.766 423.219 665.401 423.48C666.045 423.732 666.591 424.11 667.039 424.614L666.129 425.496C665.755 425.104 665.335 424.815 664.869 424.628C664.402 424.432 663.903 424.334 663.371 424.334C662.82 424.334 662.307 424.427 661.831 424.614C661.364 424.801 660.958 425.062 660.613 425.398C660.267 425.734 659.997 426.135 659.801 426.602C659.614 427.059 659.521 427.559 659.521 428.1C659.521 428.641 659.614 429.145 659.801 429.612C659.997 430.069 660.267 430.466 660.613 430.802C660.958 431.138 661.364 431.399 661.831 431.586C662.307 431.773 662.82 431.866 663.371 431.866C663.903 431.866 664.402 431.773 664.869 431.586C665.335 431.39 665.755 431.091 666.129 430.69L667.039 431.572C666.591 432.076 666.045 432.459 665.401 432.72C664.766 432.981 664.066 433.112 663.301 433.112ZM675.561 433L672.005 428.17L673.139 427.47L677.157 433H675.561ZM668.967 433V423.2H670.339V433H668.967ZM669.919 428.688V427.456H673.097V428.688H669.919ZM673.265 428.254L671.977 428.058L675.491 423.2H676.989L673.265 428.254ZM678.592 433V423.2H679.978V430.76L685.774 423.2H687.062V433H685.69V425.454L679.88 433H678.592ZM690.118 433V423.2H691.504V430.76L697.3 423.2H698.588V433H697.216V425.454L691.406 433H690.118ZM694.332 422.514C693.566 422.514 692.974 422.346 692.554 422.01C692.143 421.674 691.933 421.203 691.924 420.596H692.918C692.927 420.96 693.058 421.245 693.31 421.45C693.562 421.646 693.902 421.744 694.332 421.744C694.752 421.744 695.088 421.646 695.34 421.45C695.601 421.245 695.736 420.96 695.746 420.596H696.726C696.716 421.203 696.502 421.674 696.082 422.01C695.671 422.346 695.088 422.514 694.332 422.514ZM631.083 457.112C630.337 457.112 629.641 456.986 628.997 456.734C628.363 456.482 627.812 456.132 627.345 455.684C626.879 455.227 626.515 454.695 626.253 454.088C625.992 453.481 625.861 452.819 625.861 452.1C625.861 451.381 625.992 450.719 626.253 450.112C626.515 449.505 626.879 448.978 627.345 448.53C627.812 448.073 628.363 447.718 628.997 447.466C629.632 447.214 630.327 447.088 631.083 447.088C631.83 447.088 632.516 447.214 633.141 447.466C633.776 447.709 634.327 448.059 634.793 448.516C635.269 448.964 635.633 449.491 635.885 450.098C636.147 450.705 636.277 451.372 636.277 452.1C636.277 452.828 636.147 453.495 635.885 454.102C635.633 454.709 635.269 455.241 634.793 455.698C634.327 456.146 633.776 456.496 633.141 456.748C632.516 456.991 631.83 457.112 631.083 457.112ZM631.083 455.866C631.625 455.866 632.124 455.773 632.581 455.586C633.048 455.399 633.449 455.138 633.785 454.802C634.131 454.457 634.397 454.055 634.583 453.598C634.779 453.141 634.877 452.641 634.877 452.1C634.877 451.559 634.779 451.059 634.583 450.602C634.397 450.145 634.131 449.748 633.785 449.412C633.449 449.067 633.048 448.801 632.581 448.614C632.124 448.427 631.625 448.334 631.083 448.334C630.533 448.334 630.024 448.427 629.557 448.614C629.1 448.801 628.699 449.067 628.353 449.412C628.008 449.748 627.737 450.145 627.541 450.602C627.355 451.059 627.261 451.559 627.261 452.1C627.261 452.641 627.355 453.141 627.541 453.598C627.737 454.055 628.008 454.457 628.353 454.802C628.699 455.138 629.1 455.399 629.557 455.586C630.024 455.773 630.533 455.866 631.083 455.866ZM638.541 457V447.2H646.983V457H645.611V448.054L645.947 448.418H639.577L639.927 448.054V457H638.541ZM654.337 450.616C655.494 450.616 656.385 450.877 657.011 451.4C657.636 451.913 657.949 452.683 657.949 453.71C657.949 454.793 657.608 455.614 656.927 456.174C656.255 456.725 655.307 457 654.085 457H650.039V447.2H651.425V450.616H654.337ZM654.029 455.894C654.841 455.894 655.461 455.712 655.891 455.348C656.329 454.984 656.549 454.447 656.549 453.738C656.549 453.047 656.334 452.539 655.905 452.212C655.475 451.885 654.85 451.722 654.029 451.722H651.425V455.894H654.029ZM659.503 457V447.2H660.889V457H659.503ZM665.945 457V448.054L666.295 448.418H662.599V447.2H670.677V448.418H666.981L667.317 448.054V457H665.945Z" fill="#232323"/>
<path d="M517.328 182.372L439.628 104.671C436.665 101.709 435 97.6903 435 93.5002C435 89.3101 436.665 85.2923 439.628 82.3295L517.329 4.62386C523.5 -1.54129 533.499 -1.54129 539.67 4.62386L617.376 82.3295C623.541 88.5004 623.541 98.5 617.376 104.671L539.67 182.372C536.708 185.335 532.69 187 528.5 187C524.309 187 520.291 185.335 517.328 182.372Z" fill="#FAFAFA"/>
<path d="M479.5 159C481.985 159 484 156.985 484 154.5C484 152.015 481.985 150 479.5 150C477.015 150 475 152.015 475 154.5C475 156.985 477.015 159 479.5 159Z" fill="#D9EDCA"/>
<path d="M413.5 158C415.985 158 418 155.985 418 153.5C418 151.015 415.985 149 413.5 149C411.015 149 409 151.015 409 153.5C409 155.985 411.015 158 413.5 158Z" fill="#D9EDCA"/>
<path d="M564.428 155.783L510.228 101.758C508.161 99.6988 507 96.9061 507 93.9942C507 91.0812 508.161 88.2885 510.228 86.23L564.428 32.2173C566.494 30.1577 569.296 29 572.218 29C575.141 29 577.944 30.1577 580.009 32.2173L642 93.9942L580.009 155.783C577.944 157.843 575.141 159 572.218 159C569.296 159 566.494 157.843 564.428 155.783Z" fill="#D9EDCA"/>
<path d="M517.366 178.595L443.405 104.633C440.585 101.814 439 97.9886 439 94.0002C439 90.0118 440.585 86.1874 443.405 83.3671L517.366 9.40132C523.24 3.53289 532.759 3.53289 538.633 9.40132L612.599 83.3671C618.467 89.2411 618.467 98.7593 612.599 104.633L538.633 178.595C535.813 181.415 531.988 183 528 183C524.011 183 520.186 181.415 517.366 178.595Z" fill="#FAFAFA" stroke="#CCCCCC" stroke-width="0.501383"/>
<path d="M477.449 83.768C477.935 83.9453 478.383 83.992 478.793 83.908C479.204 83.8147 479.573 83.502 479.899 82.97L480.375 82.214L480.515 82.06L484.113 75.2H485.499L481.145 83.264C480.819 83.88 480.436 84.3467 479.997 84.664C479.568 84.972 479.101 85.14 478.597 85.168C478.103 85.2053 477.599 85.112 477.085 84.888L477.449 83.768ZM480.473 83.306L476.175 75.2H477.673L481.243 82.186L480.473 83.306ZM486.952 85V75.2H495.394V85H494.022V76.054L494.358 76.418H487.988L488.338 76.054V85H486.952ZM498.45 85V75.2H502.272C503.13 75.2 503.863 75.3353 504.47 75.606C505.076 75.8767 505.543 76.2687 505.87 76.782C506.196 77.2953 506.36 77.9067 506.36 78.616C506.36 79.3253 506.196 79.9367 505.87 80.45C505.543 80.954 505.076 81.346 504.47 81.626C503.863 81.8967 503.13 82.032 502.272 82.032H499.22L499.85 81.374V85H498.45ZM499.85 81.514L499.22 80.814H502.23C503.126 80.814 503.802 80.6227 504.26 80.24C504.726 79.8573 504.96 79.316 504.96 78.616C504.96 77.916 504.726 77.3747 504.26 76.992C503.802 76.6093 503.126 76.418 502.23 76.418H499.22L499.85 75.718V81.514ZM506.457 85L510.895 75.2H512.281L516.733 85H515.263L511.301 75.984H511.861L507.899 85H506.457ZM508.347 82.55L508.725 81.43H514.241L514.647 82.55H508.347ZM518.424 85V75.2H522.638C523.702 75.2 524.538 75.4147 525.144 75.844C525.751 76.2733 526.054 76.8987 526.054 77.72C526.054 78.5227 525.765 79.1387 525.186 79.568C524.608 79.988 523.847 80.198 522.904 80.198L523.156 79.778C524.248 79.778 525.084 79.9973 525.662 80.436C526.25 80.8653 526.544 81.4953 526.544 82.326C526.544 83.166 526.236 83.824 525.62 84.3C525.014 84.7667 524.108 85 522.904 85H518.424ZM519.81 83.894H522.876C523.623 83.894 524.183 83.7587 524.556 83.488C524.939 83.208 525.13 82.7833 525.13 82.214C525.13 81.6447 524.939 81.2293 524.556 80.968C524.183 80.7067 523.623 80.576 522.876 80.576H519.81V83.894ZM519.81 79.512H522.54C523.222 79.512 523.74 79.3767 524.094 79.106C524.458 78.8353 524.64 78.4387 524.64 77.916C524.64 77.384 524.458 76.9827 524.094 76.712C523.74 76.4413 523.222 76.306 522.54 76.306H519.81V79.512ZM528.421 85.112C528.281 85.112 528.141 85.1027 528.001 85.084C527.861 85.0653 527.707 85.0373 527.539 85L527.637 83.754C527.787 83.7913 527.936 83.81 528.085 83.81C528.496 83.81 528.823 83.6467 529.065 83.32C529.308 82.9933 529.485 82.4987 529.597 81.836C529.719 81.1733 529.798 80.338 529.835 79.33L529.989 75.2H536.891V85H535.519V76.054L535.855 76.418H530.885L531.193 76.04L531.081 79.288C531.053 80.2587 530.988 81.108 530.885 81.836C530.783 82.564 530.629 83.1707 530.423 83.656C530.218 84.1413 529.952 84.5053 529.625 84.748C529.308 84.9907 528.907 85.112 528.421 85.112ZM541.218 79.428H546.258V80.618H541.218V79.428ZM541.344 83.782H547.056V85H539.944V75.2H546.86V76.418H541.344V83.782ZM556.283 75.2H557.683V85H556.283V75.2ZM550.655 85H549.255V75.2H550.655V85ZM556.409 80.632H550.515V79.414H556.409V80.632ZM560.739 85V75.2H562.125V82.76L567.921 75.2H569.209V85H567.837V77.454L562.027 85H560.739ZM573.538 79.428H578.578V80.618H573.538V79.428ZM573.664 83.782H579.376V85H572.264V75.2H579.18V76.418H573.664V83.782ZM494.166 108.342V100.418H489.868L489.798 102.476C489.77 103.167 489.723 103.829 489.658 104.464C489.602 105.099 489.518 105.673 489.406 106.186C489.294 106.69 489.135 107.105 488.93 107.432C488.734 107.759 488.482 107.959 488.174 108.034L486.662 107.782C487.026 107.81 487.325 107.689 487.558 107.418C487.801 107.138 487.987 106.751 488.118 106.256C488.258 105.752 488.361 105.169 488.426 104.506C488.491 103.834 488.538 103.115 488.566 102.35L488.664 99.2H495.552V108.342H494.166ZM486.312 111.142L486.326 107.782H496.994V111.142H495.692V109H487.628L487.614 111.142H486.312ZM497.55 109L501.988 99.2H503.374L507.826 109H506.356L502.394 99.984H502.954L498.992 109H497.55ZM499.44 106.55L499.818 105.43H505.334L505.74 106.55H499.44ZM516.545 99.2H517.945V109H516.545V99.2ZM510.917 109H509.517V99.2H510.917V109ZM516.671 104.632H510.777V103.414H516.671V104.632ZM528.03 99.2H529.43V109H528.03V99.2ZM522.402 109H521.002V99.2H522.402V109ZM528.156 104.632H522.262V103.414H528.156V104.632ZM536.784 102.616C537.941 102.616 538.833 102.877 539.458 103.4C540.083 103.913 540.396 104.683 540.396 105.71C540.396 106.793 540.055 107.614 539.374 108.174C538.702 108.725 537.755 109 536.532 109H532.486V99.2H533.872V102.616H536.784ZM536.476 107.894C537.288 107.894 537.909 107.712 538.338 107.348C538.777 106.984 538.996 106.447 538.996 105.738C538.996 105.047 538.781 104.539 538.352 104.212C537.923 103.885 537.297 103.722 536.476 103.722H533.872V107.894H536.476ZM541.95 109V99.2H543.336V109H541.95ZM546.39 109V99.2H547.538L551.934 106.606H551.318L555.658 99.2H556.806L556.82 109H555.476L555.462 101.314H555.784L551.92 107.81H551.276L547.384 101.314H547.734V109H546.39ZM559.871 109V99.2H561.257V106.76L567.053 99.2H568.341V109H566.969V101.454L561.159 109H559.871Z" fill="#232323"/>
<path d="M514.889 644.379L437.599 566.665C431.467 560.495 431.467 550.496 437.599 544.325L514.889 466.624C521.027 460.459 530.973 460.459 537.111 466.624L614.397 544.325C617.344 547.287 619 551.305 619 555.495C619 559.685 617.344 563.702 614.397 566.665L537.099 644.379C530.964 650.54 521.024 650.54 514.889 644.379Z" fill="#FAFAFA"/>
<path d="M483.027 495.269C483.97 492.97 482.872 490.337 480.575 489.389C478.277 488.441 475.651 489.537 474.708 491.837C473.764 494.136 474.862 496.768 477.16 497.716C479.457 498.664 482.084 497.569 483.027 495.269Z" fill="#EEF3EA"/>
<path d="M413.5 499C415.985 499 418 496.985 418 494.5C418 492.015 415.985 490 413.5 490C411.015 490 409 492.015 409 494.5C409 496.985 411.015 499 413.5 499Z" fill="#EEF3EA"/>
<path d="M562.999 617.789L509.201 563.768C504.933 559.479 504.933 552.528 509.201 548.238L562.999 494.218C565.05 492.157 567.832 491 570.734 491C573.636 491 576.418 492.157 578.469 494.218L640 556.003L578.456 617.788C574.186 622.071 567.269 622.071 562.999 617.788V617.789Z" fill="#EEF3EA"/>
<path d="M515.927 640.602L442.377 566.628C436.541 560.754 436.541 551.236 442.377 545.363L515.927 471.401C521.768 465.533 531.233 465.533 537.074 471.401L610.62 545.363C613.424 548.182 615 552.007 615 555.995C615 559.983 613.424 563.808 610.62 566.628L537.062 640.602C531.224 646.466 521.765 646.466 515.927 640.602Z" fill="#FAFAFA" stroke="#CCCCCC" stroke-width="0.501383"/>
<path d="M483.137 559L479.581 554.17L480.715 553.47L484.733 559H483.137ZM476.543 559V549.2H477.915V559H476.543ZM477.495 554.688V553.456H480.673V554.688H477.495ZM480.841 554.254L479.553 554.058L483.067 549.2H484.565L480.841 554.254ZM490.55 559.112C489.804 559.112 489.108 558.986 488.464 558.734C487.83 558.482 487.279 558.132 486.812 557.684C486.346 557.227 485.982 556.695 485.72 556.088C485.459 555.481 485.328 554.819 485.328 554.1C485.328 553.381 485.459 552.719 485.72 552.112C485.982 551.505 486.346 550.978 486.812 550.53C487.279 550.073 487.83 549.718 488.464 549.466C489.099 549.214 489.794 549.088 490.55 549.088C491.297 549.088 491.983 549.214 492.608 549.466C493.243 549.709 493.794 550.059 494.26 550.516C494.736 550.964 495.1 551.491 495.352 552.098C495.614 552.705 495.744 553.372 495.744 554.1C495.744 554.828 495.614 555.495 495.352 556.102C495.1 556.709 494.736 557.241 494.26 557.698C493.794 558.146 493.243 558.496 492.608 558.748C491.983 558.991 491.297 559.112 490.55 559.112ZM490.55 557.866C491.092 557.866 491.591 557.773 492.048 557.586C492.515 557.399 492.916 557.138 493.252 556.802C493.598 556.457 493.864 556.055 494.05 555.598C494.246 555.141 494.344 554.641 494.344 554.1C494.344 553.559 494.246 553.059 494.05 552.602C493.864 552.145 493.598 551.748 493.252 551.412C492.916 551.067 492.515 550.801 492.048 550.614C491.591 550.427 491.092 550.334 490.55 550.334C490 550.334 489.491 550.427 489.024 550.614C488.567 550.801 488.166 551.067 487.82 551.412C487.475 551.748 487.204 552.145 487.008 552.602C486.822 553.059 486.728 553.559 486.728 554.1C486.728 554.641 486.822 555.141 487.008 555.598C487.204 556.055 487.475 556.457 487.82 556.802C488.166 557.138 488.567 557.399 489.024 557.586C489.491 557.773 490 557.866 490.55 557.866ZM498.007 559V549.2H499.155L503.551 556.606H502.935L507.275 549.2H508.423L508.437 559H507.093L507.079 551.314H507.401L503.537 557.81H502.893L499.001 551.314H499.351V559H498.007ZM511.488 559V549.2H512.636L517.032 556.606H516.416L520.756 549.2H521.904L521.918 559H520.574L520.56 551.314H520.882L517.018 557.81H516.374L512.482 551.314H512.832V559H511.488ZM526.242 553.428H531.282V554.618H526.242V553.428ZM526.368 557.782H532.08V559H524.968V549.2H531.884V550.418H526.368V557.782ZM534.279 559V549.2H538.101C538.96 549.2 539.692 549.335 540.299 549.606C540.906 549.877 541.372 550.269 541.699 550.782C542.026 551.295 542.189 551.907 542.189 552.616C542.189 553.325 542.026 553.937 541.699 554.45C541.372 554.954 540.906 555.346 540.299 555.626C539.692 555.897 538.96 556.032 538.101 556.032H535.049L535.679 555.374V559H534.279ZM535.679 555.514L535.049 554.814H538.059C538.955 554.814 539.632 554.623 540.089 554.24C540.556 553.857 540.789 553.316 540.789 552.616C540.789 551.916 540.556 551.375 540.089 550.992C539.632 550.609 538.955 550.418 538.059 550.418H535.049L535.679 549.718V555.514ZM544.136 559V549.2H545.522V557.782H550.982V549.2H552.368V559H544.136ZM552.578 561.226V558.636L552.914 559H550.982V557.782H553.88V561.226H552.578ZM555.744 559V549.2H557.13V556.76L562.926 549.2H564.214V559H562.842V551.454L557.032 559H555.744ZM573.079 559V555.808L573.443 556.144H570.377C569.584 556.144 568.898 556.009 568.319 555.738C567.75 555.467 567.311 555.08 567.003 554.576C566.704 554.063 566.555 553.447 566.555 552.728C566.555 551.981 566.718 551.347 567.045 550.824C567.372 550.292 567.834 549.891 568.431 549.62C569.028 549.34 569.724 549.2 570.517 549.2H574.451V559H573.079ZM566.555 559L568.977 555.528H570.405L568.039 559H566.555ZM573.079 555.36V550.012L573.443 550.418H570.573C569.733 550.418 569.089 550.614 568.641 551.006C568.193 551.389 567.969 551.958 567.969 552.714C567.969 553.433 568.179 553.988 568.599 554.38C569.028 554.772 569.658 554.968 570.489 554.968H573.443L573.079 555.36Z" fill="#232323"/>
<path d="M125.677 300.372L203.375 222.668C209.542 216.5 209.542 206.5 203.375 200.331L125.677 122.627C122.715 119.664 118.697 118 114.507 118C110.318 118 106.3 119.665 103.338 122.627L25.6272 200.331C22.6647 203.293 21 207.311 21 211.5C21 215.689 22.6647 219.706 25.6272 222.668L103.338 300.372C106.3 303.335 110.318 305 114.507 305C118.697 305 122.715 303.335 125.677 300.372Z" fill="#FAFAFA"/>
<path d="M169.5 272C171.985 272 174 269.985 174 267.5C174 265.015 171.985 263 169.5 263C167.015 263 165 265.015 165 267.5C165 269.985 167.015 272 169.5 272Z" fill="#263936"/>
<path d="M233.5 270C235.985 270 238 267.985 238 265.5C238 263.015 235.985 261 233.5 261C231.015 261 229 263.015 229 265.5C229 267.985 231.015 270 233.5 270Z" fill="#263936"/>
<path d="M78.5759 273.782L132.775 219.765C137.075 215.475 137.075 208.524 132.775 204.236L78.5759 150.219C76.5097 148.158 73.7063 147 70.7832 147C67.8597 147 65.0568 148.158 62.9901 150.219L1 212L62.9901 273.782C65.0568 275.842 67.8597 277 70.7832 277C73.7063 277 76.5097 275.842 78.5759 273.782Z" fill="#263936"/>
<path d="M125.639 296.595L199.598 222.631C205.467 216.759 205.467 207.241 199.598 201.369L125.639 127.404C122.82 124.584 118.995 123 115.007 123C111.019 123 107.195 124.585 104.375 127.404L30.4045 201.369C27.5845 204.188 26 208.012 26 212C26 215.988 27.5845 219.811 30.4045 222.631L104.375 296.595C107.195 299.415 111.019 301 115.007 301C118.995 301 122.819 299.415 125.639 296.595Z" fill="#FAFAFA" stroke="#CCCCCC" stroke-width="0.501383"/>
<path d="M64.9821 216V206.2H66.3681V213.76L72.1641 206.2H73.4521V216H72.0801V208.454L66.2701 216H64.9821ZM83.5354 206.2H84.9354V216H83.5354V206.2ZM77.9074 216H76.5074V206.2H77.9074V216ZM83.6614 211.632H77.7674V210.414H83.6614V211.632ZM95.0198 206.2H96.4198V216H95.0198V206.2ZM89.3918 216H87.9918V206.2H89.3918V216ZM95.1458 211.632H89.2518V210.414H95.1458V211.632ZM103.886 216.112C103.14 216.112 102.444 215.986 101.8 215.734C101.166 215.482 100.615 215.132 100.148 214.684C99.6815 214.227 99.3175 213.695 99.0562 213.088C98.7949 212.481 98.6642 211.819 98.6642 211.1C98.6642 210.381 98.7949 209.719 99.0562 209.112C99.3175 208.505 99.6815 207.978 100.148 207.53C100.615 207.073 101.166 206.718 101.8 206.466C102.435 206.214 103.13 206.088 103.886 206.088C104.633 206.088 105.319 206.214 105.944 206.466C106.579 206.709 107.13 207.059 107.596 207.516C108.072 207.964 108.436 208.491 108.688 209.098C108.95 209.705 109.08 210.372 109.08 211.1C109.08 211.828 108.95 212.495 108.688 213.102C108.436 213.709 108.072 214.241 107.596 214.698C107.13 215.146 106.579 215.496 105.944 215.748C105.319 215.991 104.633 216.112 103.886 216.112ZM103.886 214.866C104.428 214.866 104.927 214.773 105.384 214.586C105.851 214.399 106.252 214.138 106.588 213.802C106.934 213.457 107.2 213.055 107.386 212.598C107.582 212.141 107.68 211.641 107.68 211.1C107.68 210.559 107.582 210.059 107.386 209.602C107.2 209.145 106.934 208.748 106.588 208.412C106.252 208.067 105.851 207.801 105.384 207.614C104.927 207.427 104.428 207.334 103.886 207.334C103.336 207.334 102.827 207.427 102.36 207.614C101.903 207.801 101.502 208.067 101.156 208.412C100.811 208.748 100.54 209.145 100.344 209.602C100.158 210.059 100.064 210.559 100.064 211.1C100.064 211.641 100.158 212.141 100.344 212.598C100.54 213.055 100.811 213.457 101.156 213.802C101.502 214.138 101.903 214.399 102.36 214.586C102.827 214.773 103.336 214.866 103.886 214.866ZM111.343 216V206.2H115.557C116.621 206.2 117.457 206.415 118.063 206.844C118.67 207.273 118.973 207.899 118.973 208.72C118.973 209.523 118.684 210.139 118.105 210.568C117.527 210.988 116.766 211.198 115.823 211.198L116.075 210.778C117.167 210.778 118.003 210.997 118.581 211.436C119.169 211.865 119.463 212.495 119.463 213.326C119.463 214.166 119.155 214.824 118.539 215.3C117.933 215.767 117.027 216 115.823 216H111.343ZM112.729 214.894H115.795C116.542 214.894 117.102 214.759 117.475 214.488C117.858 214.208 118.049 213.783 118.049 213.214C118.049 212.645 117.858 212.229 117.475 211.968C117.102 211.707 116.542 211.576 115.795 211.576H112.729V214.894ZM112.729 210.512H115.459C116.141 210.512 116.659 210.377 117.013 210.106C117.377 209.835 117.559 209.439 117.559 208.916C117.559 208.384 117.377 207.983 117.013 207.712C116.659 207.441 116.141 207.306 115.459 207.306H112.729V210.512ZM120.444 216L124.882 206.2H126.268L130.72 216H129.25L125.288 206.984H125.848L121.886 216H120.444ZM122.334 213.55L122.712 212.43H128.228L128.634 213.55H122.334ZM132.412 216V206.2H133.798V214.782H139.258V206.2H140.644V216H132.412ZM140.854 218.226V215.636L141.19 216H139.258V214.782H142.156V218.226H140.854ZM144.019 216V206.2H145.405V213.76L151.201 206.2H152.489V216H151.117V208.454L145.307 216H144.019ZM155.545 216V206.2H156.931V213.76L162.727 206.2H164.015V216H162.643V208.454L156.833 216H155.545Z" fill="#232323"/>
<path d="M124.677 525.369L202.373 447.667C205.335 444.704 207 440.686 207 436.497C207 432.307 205.335 428.288 202.373 425.326L124.678 347.628C121.715 344.665 117.697 343 113.507 343C109.318 343 105.3 344.665 102.337 347.628L24.6235 425.326C18.4588 431.497 18.4588 441.496 24.6235 447.667L102.324 525.369C105.288 528.334 109.308 530 113.5 530C117.693 530 121.713 528.334 124.677 525.369Z" fill="#FAFAFA"/>
<path d="M171.539 385.184C173.295 383.426 173.295 380.574 171.539 378.816C169.783 377.057 166.936 377.057 165.18 378.816C163.424 380.574 163.424 383.426 165.18 385.184C166.936 386.943 169.783 386.943 171.539 385.184Z" fill="#D9EDCA"/>
<path d="M238.791 382.69C239.361 380.271 237.862 377.847 235.444 377.275C233.025 376.703 230.602 378.201 230.032 380.62C229.462 383.039 230.961 385.463 233.379 386.035C235.798 386.607 238.221 385.109 238.791 382.69Z" fill="#D9EDCA"/>
<path d="M77.5722 498.786L131.772 444.767C133.839 442.708 135 439.914 135 437.001C135 434.087 133.839 431.293 131.772 429.233L77.5722 375.214C73.2683 370.929 66.2938 370.929 61.9905 375.214L0 437.003L61.9905 498.786C66.2944 503.071 73.2683 503.071 77.5716 498.786L77.5722 498.786Z" fill="#D9EDCA"/>
<path d="M124.079 521.592L197.62 447.629C200.424 444.809 202 440.985 202 436.997C202 433.008 200.424 429.184 197.62 426.364L124.08 352.405C121.276 349.585 117.472 348 113.507 348C109.541 348 105.738 349.585 102.934 352.405L29.3763 426.364C23.5412 432.238 23.5412 441.755 29.3763 447.629L102.922 521.592C105.727 524.414 109.532 526 113.5 526C117.468 526 121.274 524.414 124.079 521.592Z" fill="#FAFAFA" stroke="#CCCCCC" stroke-width="0.501383"/>
<path d="M51.8453 435V425.2H56.0593C57.1233 425.2 57.9587 425.415 58.5653 425.844C59.172 426.273 59.4753 426.899 59.4753 427.72C59.4753 428.523 59.186 429.139 58.6073 429.568C58.0287 429.988 57.268 430.198 56.3253 430.198L56.5773 429.778C57.6693 429.778 58.5047 429.997 59.0833 430.436C59.6713 430.865 59.9653 431.495 59.9653 432.326C59.9653 433.166 59.6573 433.824 59.0413 434.3C58.4347 434.767 57.5293 435 56.3253 435H51.8453ZM53.2313 433.894H56.2973C57.044 433.894 57.604 433.759 57.9773 433.488C58.36 433.208 58.5513 432.783 58.5513 432.214C58.5513 431.645 58.36 431.229 57.9773 430.968C57.604 430.707 57.044 430.576 56.2973 430.576H53.2313V433.894ZM53.2313 429.512H55.9613C56.6427 429.512 57.1607 429.377 57.5153 429.106C57.8793 428.835 58.0613 428.439 58.0613 427.916C58.0613 427.384 57.8793 426.983 57.5153 426.712C57.1607 426.441 56.6427 426.306 55.9613 426.306H53.2313V429.512ZM66.7143 435.112C65.9677 435.112 65.2723 434.986 64.6283 434.734C63.9937 434.482 63.443 434.132 62.9763 433.684C62.5097 433.227 62.1457 432.695 61.8843 432.088C61.623 431.481 61.4923 430.819 61.4923 430.1C61.4923 429.381 61.623 428.719 61.8843 428.112C62.1457 427.505 62.5097 426.978 62.9763 426.53C63.443 426.073 63.9937 425.718 64.6283 425.466C65.263 425.214 65.9583 425.088 66.7143 425.088C67.461 425.088 68.147 425.214 68.7723 425.466C69.407 425.709 69.9577 426.059 70.4243 426.516C70.9003 426.964 71.2643 427.491 71.5163 428.098C71.7777 428.705 71.9083 429.372 71.9083 430.1C71.9083 430.828 71.7777 431.495 71.5163 432.102C71.2643 432.709 70.9003 433.241 70.4243 433.698C69.9577 434.146 69.407 434.496 68.7723 434.748C68.147 434.991 67.461 435.112 66.7143 435.112ZM66.7143 433.866C67.2557 433.866 67.755 433.773 68.2123 433.586C68.679 433.399 69.0803 433.138 69.4163 432.802C69.7617 432.457 70.0277 432.055 70.2143 431.598C70.4103 431.141 70.5083 430.641 70.5083 430.1C70.5083 429.559 70.4103 429.059 70.2143 428.602C70.0277 428.145 69.7617 427.748 69.4163 427.412C69.0803 427.067 68.679 426.801 68.2123 426.614C67.755 426.427 67.2557 426.334 66.7143 426.334C66.1637 426.334 65.655 426.427 65.1883 426.614C64.731 426.801 64.3297 427.067 63.9843 427.412C63.639 427.748 63.3683 428.145 63.1723 428.602C62.9857 429.059 62.8923 429.559 62.8923 430.1C62.8923 430.641 62.9857 431.141 63.1723 431.598C63.3683 432.055 63.639 432.457 63.9843 432.802C64.3297 433.138 64.731 433.399 65.1883 433.586C65.655 433.773 66.1637 433.866 66.7143 433.866ZM72.8201 433.936L73.3101 432.9C73.7394 433.236 74.2107 433.488 74.7241 433.656C75.2467 433.824 75.7647 433.913 76.2781 433.922C76.7914 433.922 77.2627 433.852 77.6921 433.712C78.1307 433.572 78.4807 433.362 78.7421 433.082C79.0034 432.802 79.1341 432.457 79.1341 432.046C79.1341 431.542 78.9287 431.159 78.5181 430.898C78.1167 430.637 77.5567 430.506 76.8381 430.506H74.6541V429.372H76.7401C77.3654 429.372 77.8507 429.246 78.1961 428.994C78.5507 428.733 78.7281 428.373 78.7281 427.916C78.7281 427.571 78.6207 427.281 78.4061 427.048C78.2007 426.805 77.9161 426.623 77.5521 426.502C77.1974 426.381 76.7914 426.32 76.3341 426.32C75.8861 426.311 75.4241 426.371 74.9481 426.502C74.4721 426.623 74.0147 426.819 73.5761 427.09L73.1281 425.942C73.7254 425.606 74.3461 425.373 74.9901 425.242C75.6434 425.102 76.2734 425.06 76.8801 425.116C77.4867 425.163 78.0327 425.303 78.5181 425.536C79.0127 425.76 79.4047 426.059 79.6941 426.432C79.9927 426.796 80.1421 427.235 80.1421 427.748C80.1421 428.215 80.0207 428.63 79.7781 428.994C79.5354 429.349 79.1994 429.624 78.7701 429.82C78.3407 430.007 77.8414 430.1 77.2721 430.1L77.3281 429.722C77.9814 429.722 78.5461 429.829 79.0221 430.044C79.5074 430.249 79.8807 430.543 80.1421 430.926C80.4127 431.309 80.5481 431.752 80.5481 432.256C80.5481 432.732 80.4267 433.157 80.1841 433.53C79.9414 433.894 79.6101 434.202 79.1901 434.454C78.7794 434.697 78.3081 434.874 77.7761 434.986C77.2534 435.098 76.7027 435.135 76.1241 435.098C75.5454 435.061 74.9714 434.949 74.4021 434.762C73.8421 434.575 73.3147 434.3 72.8201 433.936ZM82.8805 435V425.2H84.0285L88.4245 432.606H87.8085L92.1485 425.2H93.2965L93.3105 435H91.9665L91.9525 427.314H92.2745L88.4105 433.81H87.7665L83.8745 427.314H84.2245V435H82.8805ZM100.771 435.112C100.024 435.112 99.329 434.986 98.685 434.734C98.0503 434.482 97.4996 434.132 97.033 433.684C96.5663 433.227 96.2023 432.695 95.941 432.088C95.6796 431.481 95.549 430.819 95.549 430.1C95.549 429.381 95.6796 428.719 95.941 428.112C96.2023 427.505 96.5663 426.978 97.033 426.53C97.4996 426.073 98.0503 425.718 98.685 425.466C99.3196 425.214 100.015 425.088 100.771 425.088C101.518 425.088 102.204 425.214 102.829 425.466C103.464 425.709 104.014 426.059 104.481 426.516C104.957 426.964 105.321 427.491 105.573 428.098C105.834 428.705 105.965 429.372 105.965 430.1C105.965 430.828 105.834 431.495 105.573 432.102C105.321 432.709 104.957 433.241 104.481 433.698C104.014 434.146 103.464 434.496 102.829 434.748C102.204 434.991 101.518 435.112 100.771 435.112ZM100.771 433.866C101.312 433.866 101.812 433.773 102.269 433.586C102.736 433.399 103.137 433.138 103.473 432.802C103.818 432.457 104.084 432.055 104.271 431.598C104.467 431.141 104.565 430.641 104.565 430.1C104.565 429.559 104.467 429.059 104.271 428.602C104.084 428.145 103.818 427.748 103.473 427.412C103.137 427.067 102.736 426.801 102.269 426.614C101.812 426.427 101.312 426.334 100.771 426.334C100.22 426.334 99.7116 426.427 99.245 426.614C98.7876 426.801 98.3863 427.067 98.041 427.412C97.6956 427.748 97.425 428.145 97.229 428.602C97.0423 429.059 96.949 429.559 96.949 430.1C96.949 430.641 97.0423 431.141 97.229 431.598C97.425 432.055 97.6956 432.457 98.041 432.802C98.3863 433.138 98.7876 433.399 99.245 433.586C99.7116 433.773 100.22 433.866 100.771 433.866ZM118.849 435L115.783 430.17L116.959 429.47L120.487 435H118.849ZM113.823 430.688V429.456H116.693V430.688H113.823ZM117.043 430.254L115.741 430.058L118.751 425.2H120.249L117.043 430.254ZM108.251 435H106.613L110.127 429.47L111.317 430.17L108.251 435ZM114.243 435H112.871V425.2H114.243V435ZM113.291 430.688H110.407V429.456H113.291V430.688ZM110.071 430.254L106.851 425.2H108.349L111.345 430.058L110.071 430.254ZM128.983 425.2H130.383V435H128.983V425.2ZM123.355 435H121.955V425.2H123.355V435ZM129.109 430.632H123.215V429.414H129.109V430.632ZM137.849 435.112C137.102 435.112 136.407 434.986 135.763 434.734C135.128 434.482 134.578 434.132 134.111 433.684C133.644 433.227 133.28 432.695 133.019 432.088C132.758 431.481 132.627 430.819 132.627 430.1C132.627 429.381 132.758 428.719 133.019 428.112C133.28 427.505 133.644 426.978 134.111 426.53C134.578 426.073 135.128 425.718 135.763 425.466C136.398 425.214 137.093 425.088 137.849 425.088C138.596 425.088 139.282 425.214 139.907 425.466C140.542 425.709 141.092 426.059 141.559 426.516C142.035 426.964 142.399 427.491 142.651 428.098C142.912 428.705 143.043 429.372 143.043 430.1C143.043 430.828 142.912 431.495 142.651 432.102C142.399 432.709 142.035 433.241 141.559 433.698C141.092 434.146 140.542 434.496 139.907 434.748C139.282 434.991 138.596 435.112 137.849 435.112ZM137.849 433.866C138.39 433.866 138.89 433.773 139.347 433.586C139.814 433.399 140.215 433.138 140.551 432.802C140.896 432.457 141.162 432.055 141.349 431.598C141.545 431.141 141.643 430.641 141.643 430.1C141.643 429.559 141.545 429.059 141.349 428.602C141.162 428.145 140.896 427.748 140.551 427.412C140.215 427.067 139.814 426.801 139.347 426.614C138.89 426.427 138.39 426.334 137.849 426.334C137.298 426.334 136.79 426.427 136.323 426.614C135.866 426.801 135.464 427.067 135.119 427.412C134.774 427.748 134.503 428.145 134.307 428.602C134.12 429.059 134.027 429.559 134.027 430.1C134.027 430.641 134.12 431.141 134.307 431.598C134.503 432.055 134.774 432.457 135.119 432.802C135.464 433.138 135.866 433.399 136.323 433.586C136.79 433.773 137.298 433.866 137.849 433.866ZM149.688 435.112C148.942 435.112 148.251 434.991 147.616 434.748C146.991 434.496 146.445 434.146 145.978 433.698C145.521 433.241 145.162 432.709 144.9 432.102C144.639 431.495 144.508 430.828 144.508 430.1C144.508 429.372 144.639 428.705 144.9 428.098C145.162 427.491 145.526 426.964 145.992 426.516C146.459 426.059 147.005 425.709 147.63 425.466C148.265 425.214 148.956 425.088 149.702 425.088C150.458 425.088 151.154 425.219 151.788 425.48C152.432 425.732 152.978 426.11 153.426 426.614L152.516 427.496C152.143 427.104 151.723 426.815 151.256 426.628C150.79 426.432 150.29 426.334 149.758 426.334C149.208 426.334 148.694 426.427 148.218 426.614C147.752 426.801 147.346 427.062 147 427.398C146.655 427.734 146.384 428.135 146.188 428.602C146.002 429.059 145.908 429.559 145.908 430.1C145.908 430.641 146.002 431.145 146.188 431.612C146.384 432.069 146.655 432.466 147 432.802C147.346 433.138 147.752 433.399 148.218 433.586C148.694 433.773 149.208 433.866 149.758 433.866C150.29 433.866 150.79 433.773 151.256 433.586C151.723 433.39 152.143 433.091 152.516 432.69L153.426 433.572C152.978 434.076 152.432 434.459 151.788 434.72C151.154 434.981 150.454 435.112 149.688 435.112ZM157.248 435V426.054L157.598 426.418H153.902V425.2H161.98V426.418H158.284L158.62 426.054V435H157.248ZM163.681 435V425.2H165.067V432.76L170.863 425.2H172.151V435H170.779V427.454L164.969 435H163.681ZM69.6871 459V449.2H71.0731V456.76L76.8691 449.2H78.1571V459H76.7851V451.454L70.9751 459H69.6871ZM84.9723 459V449.2H88.7943C89.653 449.2 90.3856 449.335 90.9923 449.606C91.599 449.877 92.0656 450.269 92.3923 450.782C92.719 451.295 92.8823 451.907 92.8823 452.616C92.8823 453.325 92.719 453.937 92.3923 454.45C92.0656 454.954 91.599 455.346 90.9923 455.626C90.3856 455.897 89.653 456.032 88.7943 456.032H85.7423L86.3723 455.374V459H84.9723ZM86.3723 455.514L85.7423 454.814H88.7523C89.6483 454.814 90.325 454.623 90.7823 454.24C91.249 453.857 91.4823 453.316 91.4823 452.616C91.4823 451.916 91.249 451.375 90.7823 450.992C90.325 450.609 89.6483 450.418 88.7523 450.418H85.7423L86.3723 449.718V455.514ZM96.1037 453.428H101.144V454.618H96.1037V453.428ZM96.2297 457.782H101.942V459H94.8297V449.2H101.746V450.418H96.2297V457.782ZM108.509 459.112C107.762 459.112 107.071 458.991 106.437 458.748C105.811 458.496 105.265 458.146 104.799 457.698C104.341 457.241 103.982 456.709 103.721 456.102C103.459 455.495 103.329 454.828 103.329 454.1C103.329 453.372 103.459 452.705 103.721 452.098C103.982 451.491 104.346 450.964 104.813 450.516C105.279 450.059 105.825 449.709 106.451 449.466C107.085 449.214 107.776 449.088 108.523 449.088C109.279 449.088 109.974 449.219 110.609 449.48C111.253 449.732 111.799 450.11 112.247 450.614L111.337 451.496C110.963 451.104 110.543 450.815 110.077 450.628C109.61 450.432 109.111 450.334 108.579 450.334C108.028 450.334 107.515 450.427 107.039 450.614C106.572 450.801 106.166 451.062 105.821 451.398C105.475 451.734 105.205 452.135 105.009 452.602C104.822 453.059 104.729 453.559 104.729 454.1C104.729 454.641 104.822 455.145 105.009 455.612C105.205 456.069 105.475 456.466 105.821 456.802C106.166 457.138 106.572 457.399 107.039 457.586C107.515 457.773 108.028 457.866 108.579 457.866C109.111 457.866 109.61 457.773 110.077 457.586C110.543 457.39 110.963 457.091 111.337 456.69L112.247 457.572C111.799 458.076 111.253 458.459 110.609 458.72C109.974 458.981 109.274 459.112 108.509 459.112ZM113.915 457.768C114.4 457.945 114.848 457.992 115.259 457.908C115.67 457.815 116.038 457.502 116.365 456.97L116.841 456.214L116.981 456.06L120.579 449.2H121.965L117.611 457.264C117.284 457.88 116.902 458.347 116.463 458.664C116.034 458.972 115.567 459.14 115.063 459.168C114.568 459.205 114.064 459.112 113.551 458.888L113.915 457.768ZM116.939 457.306L112.641 449.2H114.139L117.709 456.186L116.939 457.306ZM123.418 459V449.2H127.24C128.098 449.2 128.831 449.335 129.438 449.606C130.044 449.877 130.511 450.269 130.838 450.782C131.164 451.295 131.328 451.907 131.328 452.616C131.328 453.325 131.164 453.937 130.838 454.45C130.511 454.954 130.044 455.346 129.438 455.626C128.831 455.897 128.098 456.032 127.24 456.032H124.188L124.818 455.374V459H123.418ZM124.818 455.514L124.188 454.814H127.198C128.094 454.814 128.77 454.623 129.228 454.24C129.694 453.857 129.928 453.316 129.928 452.616C129.928 451.916 129.694 451.375 129.228 450.992C128.77 450.609 128.094 450.418 127.198 450.418H124.188L124.818 449.718V455.514ZM137.794 459.112C137.047 459.112 136.356 458.991 135.722 458.748C135.096 458.496 134.55 458.146 134.084 457.698C133.626 457.241 133.267 456.709 133.006 456.102C132.744 455.495 132.614 454.828 132.614 454.1C132.614 453.372 132.744 452.705 133.006 452.098C133.267 451.491 133.631 450.964 134.098 450.516C134.564 450.059 135.11 449.709 135.736 449.466C136.37 449.214 137.061 449.088 137.808 449.088C138.564 449.088 139.259 449.219 139.894 449.48C140.538 449.732 141.084 450.11 141.532 450.614L140.622 451.496C140.248 451.104 139.828 450.815 139.362 450.628C138.895 450.432 138.396 450.334 137.864 450.334C137.313 450.334 136.8 450.427 136.324 450.614C135.857 450.801 135.451 451.062 135.106 451.398C134.76 451.734 134.49 452.135 134.294 452.602C134.107 453.059 134.014 453.559 134.014 454.1C134.014 454.641 134.107 455.145 134.294 455.612C134.49 456.069 134.76 456.466 135.106 456.802C135.451 457.138 135.857 457.399 136.324 457.586C136.8 457.773 137.313 457.866 137.864 457.866C138.396 457.866 138.895 457.773 139.362 457.586C139.828 457.39 140.248 457.091 140.622 456.69L141.532 457.572C141.084 458.076 140.538 458.459 139.894 458.72C139.259 458.981 138.559 459.112 137.794 459.112ZM147.759 452.616C148.916 452.616 149.807 452.877 150.433 453.4C151.058 453.913 151.371 454.683 151.371 455.71C151.371 456.793 151.03 457.614 150.349 458.174C149.677 458.725 148.729 459 147.507 459H143.461V449.2H144.847V452.616H147.759ZM147.451 457.894C148.263 457.894 148.883 457.712 149.313 457.348C149.751 456.984 149.971 456.447 149.971 455.738C149.971 455.047 149.756 454.539 149.327 454.212C148.897 453.885 148.272 453.722 147.451 453.722H144.847V457.894H147.451ZM152.925 459V449.2H154.311V459H152.925Z" fill="#232323"/>
<path d="M243.111 182.373L320.4 104.672C326.533 98.501 326.533 88.5015 320.4 82.3306L243.111 4.62542C236.975 -1.5418 227.029 -1.5418 220.893 4.62542L143.603 82.3306C140.655 85.2929 139 89.3112 139 93.5013C139 97.6913 140.656 101.71 143.603 104.672L220.893 182.373C223.839 185.336 227.835 187 232.002 187C236.169 187 240.165 185.335 243.111 182.373H243.111Z" fill="#FAFAFA"/>
<path d="M281.5 159C283.985 159 286 156.985 286 154.5C286 152.015 283.985 150 281.5 150C279.015 150 277 152.015 277 154.5C277 156.985 279.015 159 281.5 159Z" fill="#D9EDCA"/>
<path d="M346.5 158C348.985 158 351 155.985 351 153.5C351 151.015 348.985 149 346.5 149C344.015 149 342 151.015 342 153.5C342 155.985 344.015 158 346.5 158Z" fill="#D9EDCA"/>
<path d="M196 155.783L249.796 101.771C251.847 99.7122 253 96.919 253 94.0071C253 91.0947 251.847 88.3015 249.796 86.2435L196 32.2173C193.949 30.1577 191.167 29 188.267 29C185.366 29 182.584 30.1577 180.534 32.2173L119 93.9945L180.533 155.783C182.584 157.843 185.365 159 188.266 159C191.167 159 193.948 157.843 195.998 155.783H196Z" fill="#D9EDCA"/>
<path d="M243.074 178.596L316.623 104.634C322.459 98.7603 322.459 89.2421 316.623 83.3682L243.073 9.4028C237.235 3.5324 227.769 3.5324 221.93 9.4028L148.38 83.3682C145.575 86.1879 144 90.0128 144 94.0012C144 97.9896 145.576 101.814 148.38 104.634L221.93 178.596C224.734 181.416 228.537 183 232.502 183C236.467 183 240.271 181.415 243.074 178.596Z" stroke="#CCCCCC" stroke-width="0.501383"/>
<path d="M196.177 97.112C195.43 97.112 194.739 96.9907 194.105 96.748C193.479 96.496 192.933 96.146 192.467 95.698C192.009 95.2407 191.65 94.7087 191.389 94.102C191.127 93.4953 190.997 92.828 190.997 92.1C190.997 91.372 191.127 90.7047 191.389 90.098C191.65 89.4913 192.014 88.964 192.481 88.516C192.947 88.0587 193.493 87.7087 194.119 87.466C194.753 87.214 195.444 87.088 196.191 87.088C196.947 87.088 197.642 87.2187 198.277 87.48C198.921 87.732 199.467 88.11 199.915 88.614L199.005 89.496C198.631 89.104 198.211 88.8147 197.745 88.628C197.278 88.432 196.779 88.334 196.247 88.334C195.696 88.334 195.183 88.4273 194.707 88.614C194.24 88.8007 193.834 89.062 193.489 89.398C193.143 89.734 192.873 90.1353 192.677 90.602C192.49 91.0593 192.397 91.5587 192.397 92.1C192.397 92.6413 192.49 93.1453 192.677 93.612C192.873 94.0693 193.143 94.466 193.489 94.802C193.834 95.138 194.24 95.3993 194.707 95.586C195.183 95.7727 195.696 95.866 196.247 95.866C196.779 95.866 197.278 95.7727 197.745 95.586C198.211 95.39 198.631 95.0913 199.005 94.69L199.915 95.572C199.467 96.076 198.921 96.4587 198.277 96.72C197.642 96.9813 196.942 97.112 196.177 97.112ZM203.736 97V88.054L204.086 88.418H200.39V87.2H208.468V88.418H204.772L205.108 88.054V97H203.736ZM210.17 97V87.2H213.992C214.85 87.2 215.583 87.3353 216.19 87.606C216.796 87.8767 217.263 88.2687 217.59 88.782C217.916 89.2953 218.08 89.9067 218.08 90.616C218.08 91.3253 217.916 91.9367 217.59 92.45C217.263 92.954 216.796 93.346 216.19 93.626C215.583 93.8967 214.85 94.032 213.992 94.032H210.94L211.57 93.374V97H210.17ZM211.57 93.514L210.94 92.814H213.95C214.846 92.814 215.522 92.6227 215.98 92.24C216.446 91.8573 216.68 91.316 216.68 90.616C216.68 89.916 216.446 89.3747 215.98 88.992C215.522 88.6093 214.846 88.418 213.95 88.418H210.94L211.57 87.718V93.514ZM218.177 97L222.615 87.2H224.001L228.453 97H226.983L223.021 87.984H223.581L219.619 97H218.177ZM220.067 94.55L220.445 93.43H225.961L226.367 94.55H220.067ZM231.654 97V88.054L232.004 88.418H228.308V87.2H236.386V88.418H232.69L233.026 88.054V97H231.654ZM239.362 91.428H244.402V92.618H239.362V91.428ZM239.488 95.782H245.2V97H238.088V87.2H245.004V88.418H239.488V95.782ZM247.398 97V87.2H253.824L253.81 88.418H248.434L248.77 88.068L248.784 97H247.398ZM255.492 97V87.2H256.878V94.76L262.674 87.2H263.962V97H262.59V89.454L256.78 97H255.492ZM272.827 97V93.808L273.191 94.144H270.125C269.332 94.144 268.646 94.0087 268.067 93.738C267.498 93.4673 267.059 93.08 266.751 92.576C266.453 92.0627 266.303 91.4467 266.303 90.728C266.303 89.9813 266.467 89.3467 266.793 88.824C267.12 88.292 267.582 87.8907 268.179 87.62C268.777 87.34 269.472 87.2 270.265 87.2H274.199V97H272.827ZM266.303 97L268.725 93.528H270.153L267.787 97H266.303ZM272.827 93.36V88.012L273.191 88.418H270.321C269.481 88.418 268.837 88.614 268.389 89.006C267.941 89.3887 267.717 89.958 267.717 90.714C267.717 91.4327 267.927 91.988 268.347 92.38C268.777 92.772 269.407 92.968 270.237 92.968H273.191L272.827 93.36Z" fill="#232323"/>
<path d="M281.5 499C283.985 499 286 496.985 286 494.5C286 492.015 283.985 490 281.5 490C279.015 490 277 492.015 277 494.5C277 496.985 279.015 499 281.5 499Z" fill="#EEF3EA"/>
<path d="M351.04 496.353C352.006 494.063 350.932 491.423 348.642 490.456C346.353 489.49 343.714 490.563 342.748 492.853C341.783 495.144 342.856 497.783 345.146 498.75C347.436 499.716 350.075 498.643 351.04 496.353Z" fill="#EEF3EA"/>
<path d="M196.572 616.783L250.772 562.765C252.839 560.706 254 557.913 254 555.001C254 552.088 252.839 549.295 250.772 547.236L196.572 493.218C194.506 491.157 191.704 490 188.782 490C185.859 490 183.056 491.157 180.991 493.218L119 555L180.991 616.782C183.056 618.842 185.859 620 188.781 620C191.704 620 194.506 618.842 196.572 616.782L196.572 616.783Z" fill="#EEF3EA"/>
<path d="M243.623 639.599L317.595 565.62C320.416 562.8 322 558.975 322 554.987C322 550.999 320.415 547.174 317.595 544.353L243.623 470.403C237.751 464.532 228.233 464.532 222.361 470.403L148.405 544.37C145.585 547.19 144 551.015 144 555.003C144 558.992 145.585 562.816 148.405 565.637L222.369 639.6C228.239 645.467 237.753 645.467 243.623 639.6L243.623 639.599Z" stroke="#CCCCCC" stroke-width="0.501383"/>
<path d="M196.282 558.112C195.535 558.112 194.84 557.986 194.196 557.734C193.561 557.482 193.01 557.132 192.544 556.684C192.077 556.227 191.713 555.695 191.452 555.088C191.19 554.481 191.06 553.819 191.06 553.1C191.06 552.381 191.19 551.719 191.452 551.112C191.713 550.505 192.077 549.978 192.544 549.53C193.01 549.073 193.561 548.718 194.196 548.466C194.83 548.214 195.526 548.088 196.282 548.088C197.028 548.088 197.714 548.214 198.34 548.466C198.974 548.709 199.525 549.059 199.992 549.516C200.468 549.964 200.832 550.491 201.084 551.098C201.345 551.705 201.476 552.372 201.476 553.1C201.476 553.828 201.345 554.495 201.084 555.102C200.832 555.709 200.468 556.241 199.992 556.698C199.525 557.146 198.974 557.496 198.34 557.748C197.714 557.991 197.028 558.112 196.282 558.112ZM196.282 556.866C196.823 556.866 197.322 556.773 197.78 556.586C198.246 556.399 198.648 556.138 198.984 555.802C199.329 555.457 199.595 555.055 199.782 554.598C199.978 554.141 200.076 553.641 200.076 553.1C200.076 552.559 199.978 552.059 199.782 551.602C199.595 551.145 199.329 550.748 198.984 550.412C198.648 550.067 198.246 549.801 197.78 549.614C197.322 549.427 196.823 549.334 196.282 549.334C195.731 549.334 195.222 549.427 194.756 549.614C194.298 549.801 193.897 550.067 193.552 550.412C193.206 550.748 192.936 551.145 192.74 551.602C192.553 552.059 192.46 552.559 192.46 553.1C192.46 553.641 192.553 554.141 192.74 554.598C192.936 555.055 193.206 555.457 193.552 555.802C193.897 556.138 194.298 556.399 194.756 556.586C195.222 556.773 195.731 556.866 196.282 556.866ZM203.739 558V548.2H212.181V558H210.809V549.054L211.145 549.418H204.775L205.125 549.054V558H203.739ZM216.511 552.428H221.551V553.618H216.511V552.428ZM216.637 556.782H222.349V558H215.237V548.2H222.153V549.418H216.637V556.782ZM224.547 558V548.2H228.369C229.228 548.2 229.961 548.335 230.567 548.606C231.174 548.877 231.641 549.269 231.967 549.782C232.294 550.295 232.457 550.907 232.457 551.616C232.457 552.325 232.294 552.937 231.967 553.45C231.641 553.954 231.174 554.346 230.567 554.626C229.961 554.897 229.228 555.032 228.369 555.032H225.317L225.947 554.374V558H224.547ZM225.947 554.514L225.317 553.814H228.327C229.223 553.814 229.9 553.623 230.357 553.24C230.824 552.857 231.057 552.316 231.057 551.616C231.057 550.916 230.824 550.375 230.357 549.992C229.9 549.609 229.223 549.418 228.327 549.418H225.317L225.947 548.718V554.514ZM232.555 558L236.993 548.2H238.379L242.831 558H241.361L237.399 548.984H237.959L233.997 558H232.555ZM234.445 555.55L234.823 554.43H240.339L240.745 555.55H234.445ZM244.522 558V548.2H245.908V556.782H251.368V548.2H252.754V558H244.522ZM252.964 560.226V557.636L253.3 558H251.368V556.782H254.266V560.226H252.964ZM256.13 558V548.2H257.516V555.76L263.312 548.2H264.6V558H263.228V550.454L257.418 558H256.13ZM267.655 558V548.2H269.041V555.76L274.837 548.2H276.125V558H274.753V550.454L268.943 558H267.655Z" fill="#232323"/>
</svg>
