<svg width="51" height="51" viewBox="0 0 51 51" fill="none" xmlns="http://www.w3.org/2000/svg">
<circle cx="30.3333" cy="22.1673" r="17.0833" fill="#86AC6A"/>
<path d="M32.5375 15.5727L32.4179 22.0472C32.4009 22.9356 32.9647 24.1144 33.6822 24.6439L37.9188 27.8556C40.6351 29.9056 40.1909 32.4168 36.9451 33.4418L31.4272 35.1672C30.5047 35.4576 29.5309 36.4656 29.2918 37.4052L27.9763 42.4276C26.9342 46.391 24.3375 46.7839 22.185 43.2989L19.1784 38.4301C18.6317 37.5418 17.3334 36.8756 16.3084 36.9269L10.6026 37.2172C6.51968 37.4222 5.358 35.0648 8.023 31.9556L11.4055 28.0264C12.0375 27.2918 12.328 25.9252 12.0375 25.0027L10.3122 19.4847C9.30429 16.2389 11.1151 14.4452 14.3439 15.5043L19.3835 17.1614C20.2376 17.4348 21.5188 17.2468 22.2363 16.7172L27.498 12.9247C30.3339 10.8747 32.6059 12.0706 32.5375 15.5727Z" stroke="#1F302D" stroke-width="2.5625" stroke-linecap="round" stroke-linejoin="round"/>
<path d="M40.4294 46.0845L35.2532 40.9082" stroke="#1F302D" stroke-width="2.5625" stroke-linecap="round" stroke-linejoin="round"/>
</svg>
