<svg viewBox="0 0 29 16" xmlns="http://www.w3.org/2000/svg">
   <path d="M1.36038 15.2378C1.19062 15.0685 1.05593 14.8673 0.964031 14.6459C0.872133 14.4244 0.824829 14.187 0.824829 13.9472C0.824829 13.7074 0.872133 13.47 0.964031 13.2485C1.05593 13.0271 1.19062 12.8259 1.36038 12.6566L13.4791 0.537809C13.614 0.402617 13.7743 0.29536 13.9507 0.222178C14.1271 0.148997 14.3163 0.111328 14.5073 0.111328C14.6983 0.111328 14.8874 0.148997 15.0638 0.222178C15.2402 0.29536 15.4005 0.402617 15.5354 0.537809L27.6541 12.6566C28.3687 13.3711 28.3687 14.5232 27.6541 15.2378C26.9395 15.9524 25.7875 15.9524 25.0729 15.2378L14.5 4.67948L3.92705 15.2524C3.22705 15.9524 2.06038 15.9524 1.36038 15.2378Z"/>
</svg>
