<svg viewBox="0 0 35 35" xmlns="http://www.w3.org/2000/svg">
<path d="M4.3605 10.7622C4.19074 10.9315 4.05605 11.1327 3.96415 11.3541C3.87225 11.5756 3.82495 11.813 3.82495 12.0528C3.82495 12.2926 3.87225 12.53 3.96415 12.7515C4.05605 12.9729 4.19074 13.1741 4.3605 13.3434L16.4793 25.4622C16.6142 25.5974 16.7744 25.7046 16.9508 25.7778C17.1273 25.851 17.3164 25.8887 17.5074 25.8887C17.6984 25.8887 17.8875 25.851 18.0639 25.7778C18.2403 25.7046 18.4006 25.5974 18.5355 25.4622L30.6543 13.3434C31.3688 12.6289 31.3688 11.4768 30.6543 10.7622C29.9397 10.0476 28.7876 10.0476 28.073 10.7622L17.5001 21.3205L6.92717 10.7476C6.22717 10.0476 5.0605 10.0476 4.3605 10.7622Z"/>
</svg>
