<svg width="29" height="16" viewBox="0 0 29 16" fill="none" xmlns="http://www.w3.org/2000/svg">
<path d="M1.3605 0.762189C1.19074 0.931522 1.05605 1.13268 0.964153 1.35415C0.872255 1.57562 0.824951 1.81304 0.824951 2.05282C0.824951 2.29259 0.872255 2.53001 0.964153 2.75148C1.05605 2.97295 1.19074 3.17411 1.3605 3.34344L13.4793 15.4622C13.6142 15.5974 13.7744 15.7046 13.9508 15.7778C14.1273 15.851 14.3164 15.8887 14.5074 15.8887C14.6984 15.8887 14.8875 15.851 15.0639 15.7778C15.2403 15.7046 15.4006 15.5974 15.5355 15.4622L27.6543 3.34344C28.3688 2.62886 28.3688 1.47677 27.6543 0.762189C26.9397 0.0476055 25.7876 0.0476055 25.073 0.762189L14.5001 11.3205L3.92717 0.747608C3.22717 0.0476084 2.0605 0.0476055 1.3605 0.762189Z" fill="#86AC6A"/>
</svg>
