<svg viewBox="0 0 41 42" fill="none" xmlns="http://www.w3.org/2000/svg">
   <path d="M37.5833 22.7077V15.8743C37.5833 7.33268 34.1666 3.91602 25.625 3.91602H15.375C6.83329 3.91602 3.41663 7.33268 3.41663 15.8743V26.1243C3.41663 34.666 6.83329 38.0827 15.375 38.0827H22.2083"/>
   <path d="M12.5221 25.2536L16.5879 19.9748C17.1688 19.2232 18.245 19.0865 18.9967 19.6674L22.123 22.1274C22.8746 22.7082 23.9508 22.5715 24.5317 21.8369L28.478 16.7461"/>
   <path d="M33.2784 27.5235L33.7567 28.4973C33.9959 28.9756 34.5938 29.4198 35.1234 29.5223L35.7725 29.6248C37.72 29.9493 38.1813 31.3843 36.7804 32.8023L36.1825 33.4002C35.7896 33.8102 35.5676 34.596 35.6871 35.1427L35.7725 35.5014C36.3021 37.8589 35.055 38.7643 33.005 37.5343L32.5609 37.2781C32.0313 36.9706 31.1771 36.9706 30.6475 37.2781L30.2034 37.5343C28.1363 38.7814 26.8892 37.8589 27.4359 35.5014L27.5213 35.1427C27.6408 34.596 27.4188 33.8102 27.0259 33.4002L26.4279 32.8023C25.0271 31.3843 25.4884 29.9493 27.4359 29.6248L28.085 29.5223C28.5975 29.4368 29.2125 28.9756 29.4517 28.4973L29.93 27.5235C30.8525 25.6614 32.3559 25.6614 33.2784 27.5235Z"/>
</svg>
