<svg viewBox="0 0 41 42" fill="none" xmlns="http://www.w3.org/2000/svg">
   <path d="M29.5375 7.57269L29.4179 14.0472C29.4009 14.9356 29.9647 16.1144 30.6822 16.6439L34.9188 19.8556C37.6351 21.9056 37.1909 24.4168 33.9451 25.4418L28.4272 27.1672C27.5047 27.4576 26.5309 28.4656 26.2918 29.4052L24.9763 34.4276C23.9342 38.391 21.3375 38.7839 19.185 35.2989L16.1784 30.4301C15.6317 29.5418 14.3334 28.8756 13.3084 28.9269L7.6026 29.2172C3.51968 29.4222 2.358 27.0648 5.023 23.9556L8.40546 20.0264C9.03755 19.2918 9.32796 17.9252 9.03754 17.0027L7.31221 11.4847C6.30429 8.2389 8.1151 6.44518 11.3439 7.50434L16.3835 9.16143C17.2376 9.43476 18.5188 9.24683 19.2363 8.71725L24.498 4.92474C27.3339 2.87474 29.6059 4.07061 29.5375 7.57269Z"
         stroke="#1F302D" stroke-width="2.5625" stroke-linecap="round" stroke-linejoin="round"/>
   <path d="M37.4294 38.0845L32.2532 32.9082" stroke="#1F302D" stroke-width="2.5625" stroke-linecap="round"
         stroke-linejoin="round"/>
</svg>
